<svg width="308" height="316" viewBox="0 0 308 316" fill="none" xmlns="http://www.w3.org/2000/svg">
<path opacity="0.2" d="M208.61 20H103.39C86.9629 20 71.7837 28.7699 63.5702 43.0062L10.9601 134.194C2.74661 148.43 2.74661 165.97 10.9601 180.206L63.5702 271.394C71.7837 285.63 86.9629 294.4 103.39 294.4H208.61C225.037 294.4 240.216 285.63 248.43 271.394L301.04 180.206C309.253 165.97 309.253 148.43 301.04 134.194L248.43 43.0062C240.216 28.7699 225.037 20 208.61 20Z" fill="url(#paint0_linear_0_384)"/>
<path d="M36 150.978C36.0047 156.849 40.7796 161.605 46.665 161.6H230.935C236.82 161.605 241.595 156.849 241.6 150.978V43.2H36V150.978Z" fill="url(#paint1_linear_0_384)"/>
<path d="M230.935 23.2H46.665C40.7796 23.1952 36.0047 28.0292 36 33.9971V43.2H241.6V33.9971C241.595 28.0292 236.82 23.1952 230.935 23.2Z" fill="url(#paint2_linear_0_384)"/>
<rect x="134.4" y="98.4" width="24.8" height="3.2" rx="1.08052" fill="url(#paint3_linear_0_384)"/>
<rect x="134.4" y="112.8" width="36.8" height="3.2" rx="1.08052" fill="url(#paint4_linear_0_384)"/>
<rect x="163.2" y="98.4" width="9.6" height="3.2" rx="1.08052" fill="url(#paint5_linear_0_384)"/>
<rect x="134.4" y="105.6" width="19.2" height="3.2" rx="1.08052" fill="url(#paint6_linear_0_384)"/>
<rect x="156.8" y="105.6" width="7.2" height="3.2" rx="1.08052" fill="url(#paint7_linear_0_384)"/>
<rect x="178.4" y="98.4" width="9.6" height="3.2" rx="1.08052" fill="url(#paint8_linear_0_384)"/>
<rect x="134.4" y="121.6" width="53.6" height="8" rx="2.40116" fill="url(#paint9_linear_0_384)"/>
<g opacity="0.24">
<rect x="48.0201" y="91.3315" width="76.0928" height="44.9694" rx="1.81277" fill="url(#paint10_linear_0_384)"/>
</g>
<rect x="94.4" y="105.6" width="15.2" height="3.2" rx="1.08052" fill="white"/>
<rect opacity="0.34" x="94.4" y="119.2" width="22.4" height="3.2" rx="1.08052" fill="white"/>
<rect opacity="0.34" x="93.6" y="112" width="12" height="3.2" rx="1.08052" fill="white"/>
<path d="M70.4 101.873V97.6C61.1291 97.5926 53.6075 105.114 53.6 114.4H57.873C57.8786 107.476 63.4871 101.867 70.4 101.873Z" fill="white"/>
<path d="M57.2235 114.4H52.8C52.7957 118.573 54.5142 122.585 57.5965 125.6L60.8 122.751C58.5017 120.503 57.2203 117.511 57.2235 114.4Z" fill="white"/>
<path opacity="0.34" d="M81.7667 102.822C78.5983 99.483 74.1991 97.5949 69.6 97.6V101.873C76.5111 101.872 82.1169 107.478 82.127 114.4H86.4C86.4041 110.087 84.7441 105.938 81.7667 102.822Z" fill="white"/>
<path d="M82.1516 113.6C82.1431 118.727 79.0393 123.333 74.3125 125.233C69.5857 127.133 64.1868 125.945 60.6767 122.233L57.6 125.178C62.3073 130.156 69.5478 131.749 75.887 129.201C82.2261 126.653 86.3887 120.476 86.4 113.6H82.1516Z" fill="white"/>
<rect opacity="0.34" x="62.4" y="109.6" width="14.4" height="4" rx="1.30883" fill="white"/>
<rect opacity="0.34" x="60.8" y="116" width="18.4" height="1.6" rx="0.604331" fill="white"/>
<rect x="48" y="50.4" width="126.4" height="29.6" rx="3.37617" fill="white"/>
<circle cx="68.4" cy="65.2001" r="8.4" fill="url(#paint11_linear_0_384)"/>
<rect x="83.2" y="67.2" width="60" height="4" rx="1.17773" fill="url(#paint12_linear_0_384)"/>
<rect x="83.2" y="59.2" width="21.6" height="4.8" rx="1.54293" fill="url(#paint13_linear_0_384)"/>
<circle cx="73.2" cy="41.2" r="1.2" fill="white"/>
<circle cx="78.8" cy="41.2" r="1.2" fill="white"/>
<circle cx="84.4" cy="41.2" r="1.2" fill="white"/>
<path d="M197.6 213.594C238.683 226.207 263.571 213.594 263.571 213.594L264.8 68.8L234.045 70.5658C207.097 128.837 207.657 196.441 197.6 213.594Z" fill="url(#paint14_linear_0_384)"/>
<path d="M270.877 30.02C270.877 30.3534 272 56.0187 272 56.0187C272 56.0187 251.087 58.7963 251.2 58.3519C251.314 57.9075 252.784 26.4 252.784 26.4L270.877 30.02Z" fill="url(#paint15_linear_0_384)"/>
<path d="M247.725 12.8C247.725 12.8 241.6 35.6599 241.6 37.2927C241.6 38.9256 255.195 41.3006 258.482 40.7069C261.769 40.1131 266.4 14.5813 266.4 14.5813L247.725 12.8Z" fill="url(#paint16_linear_0_384)"/>
<path d="M271.2 32.7916C260.725 33.064 258.4 26.6633 258.4 26.6633C258.4 26.6633 259.994 15.3138 258.4 14.4L270.841 15.5919L271.2 32.7916Z" fill="url(#paint17_linear_0_384)"/>
<path d="M259.2 27.3489C267.699 20.4871 270.887 25.554 267.421 30.2395C263.955 34.9249 261.056 35.2 261.056 35.2L259.2 27.3489Z" fill="url(#paint18_linear_0_384)"/>
<path d="M260.852 16L258.515 25.1674C258.515 25.1674 257.46 31.6516 255.086 31.7634C252.712 31.8752 243.761 29.6047 243.036 29.8456C242.312 30.0865 240.503 36.7943 240.842 37.6887C241.181 38.5831 255.388 41.1358 258.515 40.7631C261.643 40.3904 265.6 22.7078 265.6 22.7078L260.852 16Z" fill="url(#paint19_linear_0_384)"/>
<path d="M220 255.2L207.702 308L191.2 305.932L201.045 255.2H220Z" fill="url(#paint20_linear_0_384)"/>
<mask id="mask0_0_384" style="mask-type:luminance" maskUnits="userSpaceOnUse" x="191" y="255" width="29" height="53">
<path fill-rule="evenodd" clip-rule="evenodd" d="M219.697 255.206L207.529 307.995L191.203 305.928L200.943 255.206H219.697Z" fill="white"/>
</mask>
<g mask="url(#mask0_0_384)">
<path opacity="0.34" d="M201.041 267.931C186.731 269.306 204.221 276.649 211.902 286.788C219.582 296.927 215.6 272.98 215.6 272.98L203.779 266.057" fill="url(#paint21_linear_0_384)"/>
</g>
<path d="M282.232 245.6L304 298.975L289.072 306.4L268.8 258.636L282.232 245.6Z" fill="url(#paint22_linear_0_384)"/>
<mask id="mask1_0_384" style="mask-type:luminance" maskUnits="userSpaceOnUse" x="268" y="245" width="36" height="62">
<path fill-rule="evenodd" clip-rule="evenodd" d="M282.271 245.675L303.983 299.161L289.093 306.602L268.874 258.738L282.271 245.675Z" fill="white"/>
</mask>
<g mask="url(#mask1_0_384)">
<path d="M277.906 280.118C266.587 283.942 286.854 280.673 297.371 282.873C307.887 285.073 297.436 273.385 297.436 273.385L284.09 273.008" fill="url(#paint23_linear_0_384)"/>
<path opacity="0.34" d="M273.009 284.445C295.8 285.45 295.432 276.629 295.432 276.629L272.757 278.538" fill="url(#paint24_linear_0_384)"/>
</g>
<path d="M154.4 312.8C154.4 309.827 156.279 307.219 159.034 306.402C170.296 303.06 192.42 292.577 193.975 287.2C193.975 287.2 199.886 294.603 192.743 299.321L212 296.113L209.083 310.389L154.4 312.8Z" fill="url(#paint25_linear_0_384)"/>
<path d="M255.935 316C254.307 313.567 254.339 307.748 267.301 306.706C283.207 305.428 282.036 294.352 280.379 289.092C280.379 289.092 289.333 291.875 285.998 299.692L300.198 286.4L305.6 299.697L276.098 315.394L255.935 316Z" fill="url(#paint26_linear_0_384)"/>
<path d="M272 45.8659V38.4L252.982 48.268L252 52.8L272 45.8659Z" fill="url(#paint27_linear_0_384)"/>
<path d="M197.6 272.274C206.661 280.811 221.293 279.978 221.293 279.978L242.13 203.432L262.4 122.106L218.319 116.8L210.78 202.514L197.6 272.274Z" fill="url(#paint28_linear_0_384)"/>
<mask id="mask2_0_384" style="mask-type:luminance" maskUnits="userSpaceOnUse" x="197" y="116" width="66" height="164">
<path fill-rule="evenodd" clip-rule="evenodd" d="M197.687 271.906C206.729 280.419 221.332 279.588 221.332 279.588L242.127 203.255L262.356 122.155L218.364 116.864L210.84 202.339L197.687 271.906Z" fill="white"/>
</mask>
<g mask="url(#mask2_0_384)">
<path d="M211.945 134.88C223.536 133.047 215.52 217.789 237.063 241.943C258.607 266.097 250.8 141.362 250.8 141.362L240.815 100.446" fill="url(#paint29_linear_0_384)"/>
</g>
<path d="M271.95 281.486C289.595 285.252 295.2 276.161 295.2 276.161L265.223 205.767C265.223 205.767 262.873 129.077 261.749 120.676C260.45 110.969 220 122.552 220 122.552L241.07 214.778L271.95 281.486Z" fill="url(#paint30_linear_0_384)"/>
<mask id="mask3_0_384" style="mask-type:luminance" maskUnits="userSpaceOnUse" x="220" y="116" width="76" height="167">
<path fill-rule="evenodd" clip-rule="evenodd" d="M271.853 282.081C289.429 285.859 295.012 276.738 295.012 276.738L265.152 206.118C265.152 206.118 262.811 129.181 261.692 120.753C260.398 111.015 220.106 122.635 220.106 122.635L241.094 215.157L271.853 282.081Z" fill="white"/>
</mask>
<g mask="url(#mask3_0_384)">
<path d="M214.457 120.852C257.176 133.743 262.747 134.049 263.832 166.332C264.918 198.615 278.806 138.085 278.806 138.085L265.287 121.531L245.55 113.05L214.457 120.852" fill="url(#paint31_linear_0_384)"/>
<path d="M250.152 234.865C248.03 240.714 275.145 236.539 284.686 237.493C294.226 238.446 276.652 221.31 276.652 221.31L260.332 221.562" fill="url(#paint32_linear_0_384)"/>
</g>
<path d="M214.574 125.162C214.574 125.162 253.969 126.949 268.184 123.303C268.184 123.303 283.778 75.1884 281.341 67.0875C278.905 58.9866 272 44 272 44L254.732 51.6804C254.732 51.6804 211.325 87.8984 214.574 125.162Z" fill="url(#paint33_linear_0_384)"/>
<mask id="mask4_0_384" style="mask-type:luminance" maskUnits="userSpaceOnUse" x="214" y="44" width="68" height="83">
<path fill-rule="evenodd" clip-rule="evenodd" d="M214.671 125.695C214.671 125.695 253.83 127.491 267.96 123.825C267.96 123.825 283.46 75.435 281.038 67.2878C278.616 59.1406 271.753 44.0684 271.753 44.0684L254.588 51.7926C254.588 51.7926 211.441 88.2176 214.671 125.695Z" fill="white"/>
</mask>
<g mask="url(#mask4_0_384)">
<path d="M267.851 83.2373C252.119 111.333 262.308 121.893 214.671 121.485C167.034 121.078 216.656 107.163 216.656 107.163L259.886 88.3637L267.851 83.2373" fill="url(#paint34_linear_0_384)"/>
</g>
<path d="M174.35 37.4557L239.53 52.2534L224.411 118.972L159.232 104.174L174.35 37.4557Z" fill="url(#paint35_linear_0_384)"/>
<path d="M203.603 44.0969L210.277 45.6122L195.159 112.331L188.484 110.815L203.603 44.0969Z" fill="url(#paint36_linear_0_384)"/>
<path d="M177.616 55.8423L187.042 57.9822L184.082 71.0447L174.657 68.9048L177.616 55.8423Z" fill="url(#paint37_linear_0_384)"/>
<path d="M197.185 102.028C197.185 102.028 193.951 102.378 192.874 102.028C191.796 101.678 179.103 100 179.103 100C179.103 100 177.067 102.518 184.491 103.497C184.491 103.497 172.157 107.273 169.044 106.504C169.044 106.504 166.889 110.49 175.391 110.35C175.391 110.35 178.025 113.497 185.09 112.658C192.155 111.819 208.8 110.35 208.8 110.35L197.185 102.028Z" fill="url(#paint38_linear_0_384)"/>
<mask id="mask5_0_384" style="mask-type:luminance" maskUnits="userSpaceOnUse" x="169" y="100" width="41" height="13">
<path fill-rule="evenodd" clip-rule="evenodd" d="M197.732 102.09C197.732 102.09 194.542 102.442 193.478 102.09C192.415 101.737 179.891 100.046 179.891 100.046C179.891 100.046 177.882 102.583 185.208 103.57C185.208 103.57 173.038 107.377 169.966 106.601C169.966 106.601 167.839 110.619 176.228 110.478C176.228 110.478 178.827 113.65 185.798 112.805C192.77 111.959 209.193 110.478 209.193 110.478L197.732 102.09Z" fill="white"/>
</mask>
<g mask="url(#mask5_0_384)">
<path opacity="0.34" d="M194.537 101.121C189.161 99.623 193.383 110.861 189.459 113.483C185.535 116.105 197.037 115.269 197.037 115.269L197.287 104.493" fill="url(#paint39_linear_0_384)"/>
</g>
<path d="M271.754 44L252.272 49.1281C252.272 49.1281 235.213 68.0225 233.957 70.7887C233.957 70.7887 201.759 142.723 238.101 237.519C270.753 239.028 305.6 218.965 305.6 218.965C231.106 113.416 309.068 105.016 271.754 44Z" fill="url(#paint40_linear_0_384)"/>
<mask id="mask6_0_384" style="mask-type:luminance" maskUnits="userSpaceOnUse" x="220" y="44" width="86" height="194">
<path fill-rule="evenodd" clip-rule="evenodd" d="M271.857 44.0682L252.349 49.199C252.349 49.199 235.268 68.103 234.011 70.8707C234.011 70.8707 201.771 142.841 238.16 237.686C270.854 239.196 305.747 219.123 305.747 219.123C231.156 113.519 309.219 105.115 271.857 44.0682Z" fill="white"/>
</mask>
<g mask="url(#mask6_0_384)">
<path d="M229.226 143.758L232.131 176.069L264.865 174.846L262.862 143.558L229.226 143.758Z" fill="url(#paint41_linear_0_384)"/>
<path d="M227.095 142.155C226.886 143.399 226.249 152.941 226.249 152.941L263.884 153.102L264.212 142.212L227.095 142.155Z" fill="white"/>
<path d="M216.358 148.979C220.53 133.403 253.914 143.444 260.186 103.97C262.63 88.5938 231.156 113.519 231.156 113.519L214.385 117.328" fill="url(#paint42_linear_0_384)"/>
</g>
<path d="M234.4 70.4L252.902 48.4067L272.583 43.2L275.2 48.7189L253.754 53.4199L256.094 56.5446L234.4 70.4Z" fill="white"/>
<g opacity="0.69">
<path d="M247.613 77.6855L239.115 76.842C238.645 76.7953 238.361 76.3267 238.482 75.7954L239.724 70.3206C239.844 69.7892 240.323 69.3963 240.793 69.443L249.291 70.2864C249.761 70.3331 250.045 70.8017 249.924 71.3331L248.682 76.8078C248.562 77.3392 248.083 77.7321 247.613 77.6855Z" fill="url(#paint43_linear_0_384)"/>
<mask id="mask7_0_384" style="mask-type:luminance" maskUnits="userSpaceOnUse" x="238" y="69" width="12" height="9">
<path fill-rule="evenodd" clip-rule="evenodd" d="M247.613 77.6856L239.115 76.8421C238.645 76.7955 238.361 76.3269 238.482 75.7955L239.724 70.3207C239.844 69.7894 240.323 69.3964 240.793 69.4431L249.291 70.2866C249.761 70.3332 250.045 70.8018 249.924 71.3332L248.682 76.808C248.562 77.3393 248.083 77.7322 247.613 77.6856Z" fill="white"/>
</mask>
<g mask="url(#mask7_0_384)">
<path d="M237.861 76.3118C247.613 77.6856 247.905 77.9762 249.303 74.0706C250.702 70.1649 250.18 77.9404 250.18 77.9404L247.21 79.4961L237.15 77.4889" fill="url(#paint44_linear_0_384)"/>
</g>
<ellipse cx="241.75" cy="73.0496" rx="1.73276" ry="1.43367" transform="rotate(-59.4025 241.75 73.0496)" fill="white"/>
<path d="M248.506 72.5354L244.499 72.1377L244.591 71.7332L248.597 72.1307L248.506 72.5354Z" fill="white"/>
<path d="M248.192 73.9161L244.186 73.5186L244.278 73.1139L248.284 73.5116L248.192 73.9161Z" fill="white"/>
<path d="M246.8 75.1899L243.873 74.8993L243.965 74.4948L246.892 74.7852L246.8 75.1899Z" fill="white"/>
<path d="M246.284 69.9881L243.8 69.7415L244.082 68.4992C244.258 67.7239 244.956 67.1505 245.642 67.2186C246.328 67.2867 246.742 67.9705 246.566 68.7458L246.284 69.9881Z" fill="url(#paint45_linear_0_384)"/>
<mask id="mask8_0_384" style="mask-type:luminance" maskUnits="userSpaceOnUse" x="243" y="67" width="4" height="3">
<path fill-rule="evenodd" clip-rule="evenodd" d="M246.284 69.9881L243.8 69.7415L244.082 68.4992C244.258 67.7239 244.956 67.1505 245.642 67.2186C246.328 67.2867 246.742 67.9705 246.566 68.7458L246.284 69.9881Z" fill="white"/>
</mask>
<g mask="url(#mask8_0_384)">
<path d="M246.77 68.7717C246.257 69.6611 243.914 69.0896 243.623 69.343C243.333 69.5964 244.065 70.1355 244.065 70.1355L246.527 70.3799L246.789 69.1247" fill="url(#paint46_linear_0_384)"/>
</g>
<path d="M247.735 71.2485L241.854 70.6648L242.186 69.2004L248.067 69.7842L247.735 71.2485Z" fill="url(#paint47_linear_0_384)"/>
</g>
<path d="M192.077 100.212C192.077 100.212 191.255 114.615 194.972 121.552L242.259 124C247.124 124 251.605 122.2 253.967 119.299L271.337 76.9788C272.952 74.1029 273.245 70.6628 272.141 67.5522C271.036 64.4416 268.642 61.9674 265.581 60.7723C260.382 58.7426 254.489 60.8281 251.697 65.6853L235.915 98.9992L192.077 100.212Z" fill="url(#paint48_linear_0_384)"/>
<path d="M271.301 14.4879C267.199 15.9989 247.688 15.0309 246.4 12.2873C246.4 12.2873 250.104 0.737646 251.913 0.70209C251.913 0.70209 268.012 -2.21421 271.597 3.84046C272.653 5.62313 271.301 14.4879 271.301 14.4879Z" fill="url(#paint49_linear_0_384)"/>
<mask id="mask9_0_384" style="mask-type:luminance" maskUnits="userSpaceOnUse" x="246" y="0" width="26" height="16">
<path fill-rule="evenodd" clip-rule="evenodd" d="M271.214 14.3947C267.139 15.896 247.759 14.9342 246.479 12.2083C246.479 12.2083 250.159 0.732899 251.955 0.697571C251.955 0.697571 267.947 -2.19996 271.508 3.81574C272.557 5.58694 271.214 14.3947 271.214 14.3947Z" fill="white"/>
</mask>
<g mask="url(#mask9_0_384)">
<path d="M272.945 12.7383C271.894 8.2023 263.777 17.9709 255.276 16.4815C246.775 14.9921 266.421 23.7933 266.421 23.7933L273.346 19.4409L275.879 15.3141" fill="url(#paint50_linear_0_384)"/>
</g>
<circle cx="233.2" cy="82" r="2" fill="white"/>
<rect x="64" y="171.2" width="48.8" height="9.6" transform="rotate(-180 64 171.2)" fill="url(#paint51_linear_0_384)"/>
<mask id="mask10_0_384" style="mask-type:luminance" maskUnits="userSpaceOnUse" x="15" y="161" width="49" height="11">
<rect x="63.916" y="171.411" width="48.6345" height="9.7078" transform="rotate(-180 63.916 171.411)" fill="white"/>
</mask>
<g mask="url(#mask10_0_384)">
<path d="M56.1196 163.239C62.4678 170.558 15.1454 166.972 13.6064 170.558C12.0675 174.144 76.5106 181.933 76.5106 181.933L75.3564 163.628L69.2647 156.812" fill="url(#paint52_linear_0_384)"/>
</g>
<rect x="79.2" y="287.2" width="79.2" height="116.8" rx="3.23413" transform="rotate(-180 79.2 287.2)" fill="url(#paint53_linear_0_384)"/>
<mask id="mask11_0_384" style="mask-type:luminance" maskUnits="userSpaceOnUse" x="0" y="169" width="80" height="118">
<rect x="79.4022" y="286.837" width="78.5847" height="117.213" rx="3.23413" transform="rotate(-180 79.4022 286.837)" fill="white"/>
</mask>
<g mask="url(#mask11_0_384)">
<path d="M56.6454 166.304C88.7128 219.079 66.5161 284.774 18.2959 286.837C-29.9243 288.899 117.798 300.086 117.798 300.086L131.575 187.448L93.6879 153.255H74.1784" fill="url(#paint54_linear_0_384)"/>
</g>
<rect x="74.4" y="164.8" width="68.8" height="21.6" rx="2.50191" transform="rotate(-180 74.4 164.8)" fill="url(#paint55_linear_0_384)"/>
<mask id="mask12_0_384" style="mask-type:luminance" maskUnits="userSpaceOnUse" x="5" y="143" width="70" height="22">
<rect x="74.486" y="164.761" width="68.7488" height="21.4297" rx="2.50191" transform="rotate(-180 74.486 164.761)" fill="white"/>
</mask>
<g mask="url(#mask12_0_384)">
<rect opacity="0.32" x="69.3293" y="160.636" width="1.36839" height="12.6834" rx="0.390314" transform="rotate(180 69.3293 160.636)" fill="url(#paint56_linear_0_384)"/>
<rect opacity="0.32" x="63.1171" y="160.637" width="1.36839" height="12.6834" rx="0.390314" transform="rotate(-180 63.1171 160.637)" fill="url(#paint57_linear_0_384)"/>
<rect opacity="0.32" x="44.481" y="160.637" width="1.36839" height="12.6834" rx="0.390314" transform="rotate(180 44.481 160.637)" fill="url(#paint58_linear_0_384)"/>
<rect opacity="0.32" x="38.269" y="160.637" width="1.36839" height="12.6834" rx="0.390314" transform="rotate(180 38.269 160.637)" fill="url(#paint59_linear_0_384)"/>
<rect opacity="0.32" x="32.0569" y="160.637" width="1.36839" height="12.6834" rx="0.390314" transform="rotate(180 32.0569 160.637)" fill="url(#paint60_linear_0_384)"/>
<rect opacity="0.32" x="25.8448" y="160.637" width="1.36839" height="12.6834" rx="0.390314" transform="rotate(180 25.8448 160.637)" fill="url(#paint61_linear_0_384)"/>
<rect opacity="0.32" x="19.6328" y="160.637" width="1.36839" height="12.6834" rx="0.390314" transform="rotate(180 19.6328 160.637)" fill="url(#paint62_linear_0_384)"/>
<rect opacity="0.32" x="13.4207" y="160.637" width="1.36839" height="12.6834" rx="0.390314" transform="rotate(180 13.4207 160.637)" fill="url(#paint63_linear_0_384)"/>
<rect opacity="0.32" x="56.9051" y="160.637" width="1.36839" height="12.6834" rx="0.390314" transform="rotate(-180 56.9051 160.637)" fill="url(#paint64_linear_0_384)"/>
<rect opacity="0.32" x="50.6931" y="160.637" width="1.36839" height="12.6834" rx="0.390314" transform="rotate(180 50.6931 160.637)" fill="url(#paint65_linear_0_384)"/>
</g>
<rect x="70.4" y="271.2" width="50.4" height="80.8" transform="rotate(-180 70.4 271.2)" fill="url(#paint66_linear_0_384)"/>
<rect x="70.4" y="240.8" width="50.4" height="20" transform="rotate(-180 70.4 240.8)" fill="white"/>
<rect x="82.4" y="212" width="40" height="8" fill="url(#paint67_linear_0_384)"/>
<mask id="mask13_0_384" style="mask-type:luminance" maskUnits="userSpaceOnUse" x="82" y="212" width="41" height="9">
<rect x="82.5294" y="212.107" width="39.8051" height="8.11576" fill="white"/>
</mask>
<g mask="url(#mask13_0_384)">
<path d="M88.9103 213.391C83.7147 219.51 122.446 216.512 123.705 219.51C124.965 222.508 72.2213 229.019 72.2213 229.019L73.1659 213.717L78.1517 208.019" fill="url(#paint68_linear_0_384)"/>
</g>
<rect x="70.4" y="218.4" width="64.8" height="70.4" rx="2.27644" fill="url(#paint69_linear_0_384)"/>
<mask id="mask14_0_384" style="mask-type:luminance" maskUnits="userSpaceOnUse" x="70" y="218" width="66" height="72">
<rect x="70.5126" y="218.52" width="64.7271" height="70.4874" rx="2.27644" fill="white"/>
</mask>
<g mask="url(#mask14_0_384)">
<path d="M89.2565 216.524C62.8439 248.261 81.1263 287.767 120.843 289.007C160.56 290.248 38.8876 296.975 38.8876 296.975L27.5398 229.239L58.7461 208.677H74.8153" fill="url(#paint70_linear_0_384)"/>
</g>
<rect x="74.4" y="196" width="56" height="17.6" rx="2.05992" fill="url(#paint71_linear_0_384)"/>
<mask id="mask15_0_384" style="mask-type:luminance" maskUnits="userSpaceOnUse" x="74" y="196" width="58" height="19">
<rect x="74.5374" y="196.929" width="56.6325" height="17.1149" rx="2.05992" fill="white"/>
</mask>
<g mask="url(#mask15_0_384)">
<rect opacity="0.32" x="78.7853" y="200.62" width="1.12722" height="10.1296" rx="0.321356" fill="url(#paint72_linear_0_384)"/>
<rect opacity="0.32" x="83.9025" y="200.62" width="1.12722" height="10.1296" rx="0.321356" fill="url(#paint73_linear_0_384)"/>
<rect opacity="0.32" x="99.2543" y="200.62" width="1.12722" height="10.1296" rx="0.321356" fill="url(#paint74_linear_0_384)"/>
<rect opacity="0.32" x="104.372" y="200.62" width="1.12722" height="10.1296" rx="0.321356" fill="url(#paint75_linear_0_384)"/>
<rect opacity="0.32" x="109.489" y="200.62" width="1.12722" height="10.1296" rx="0.321356" fill="url(#paint76_linear_0_384)"/>
<rect opacity="0.32" x="114.606" y="200.62" width="1.12722" height="10.1296" rx="0.321356" fill="url(#paint77_linear_0_384)"/>
<rect opacity="0.32" x="119.723" y="200.62" width="1.12722" height="10.1296" rx="0.321356" fill="url(#paint78_linear_0_384)"/>
<rect opacity="0.32" x="124.84" y="200.62" width="1.12722" height="10.1296" rx="0.321356" fill="url(#paint79_linear_0_384)"/>
<rect opacity="0.32" x="89.0198" y="200.62" width="1.12722" height="10.1296" rx="0.321356" fill="url(#paint80_linear_0_384)"/>
<rect opacity="0.32" x="94.137" y="200.62" width="1.12722" height="10.1296" rx="0.321356" fill="url(#paint81_linear_0_384)"/>
</g>
<rect x="77.6" y="230.4" width="41.6" height="48.8" fill="url(#paint82_linear_0_384)"/>
<rect x="77.6" y="260" width="41.6" height="16.8" fill="white"/>
<rect x="109.6" y="266.4" width="66.4" height="27.2" rx="12.5252" fill="url(#paint83_linear_0_384)"/>
<mask id="mask16_0_384" style="mask-type:luminance" maskUnits="userSpaceOnUse" x="109" y="266" width="67" height="28">
<rect x="109.659" y="266.481" width="66.147" height="26.6161" rx="12.5252" fill="white"/>
</mask>
<g mask="url(#mask16_0_384)">
<rect x="141.992" y="265.249" width="38.0099" height="35.4882" fill="url(#paint84_linear_0_384)"/>
<mask id="mask17_0_384" style="mask-type:luminance" maskUnits="userSpaceOnUse" x="141" y="265" width="40" height="36">
<rect x="141.992" y="265.249" width="38.0099" height="35.4882" fill="white"/>
</mask>
<g mask="url(#mask17_0_384)">
<path d="M138.742 266.481C173.396 267.942 172.284 285.335 163.574 295.513C154.864 305.69 182.291 301.619 182.291 301.619L185.256 267.387L165.613 257.765H146.154" fill="#3F87E7"/>
</g>
<path d="M116.689 263.871C101.959 286.611 125.824 293.544 143.63 293.544C161.437 293.544 105.199 307.262 105.199 307.262L94.9142 290.054L104.087 263.409L124.666 260.633" fill="url(#paint85_linear_0_384)"/>
</g>
<defs>
<linearGradient id="paint0_linear_0_384" x1="4.79999" y1="294.4" x2="307.2" y2="294.4" gradientUnits="userSpaceOnUse">
<stop stop-color="#A7F6FF"/>
<stop offset="1" stop-color="#34A595"/>
</linearGradient>
<linearGradient id="paint1_linear_0_384" x1="36" y1="161.6" x2="241.6" y2="161.6" gradientUnits="userSpaceOnUse">
<stop offset="0.1035" stop-color="#F6FBFF"/>
<stop offset="0.8866" stop-color="#E9EFFC"/>
</linearGradient>
<linearGradient id="paint2_linear_0_384" x1="36" y1="43.1999" x2="241.6" y2="43.1999" gradientUnits="userSpaceOnUse">
<stop stop-color="#98C5FF"/>
<stop offset="1" stop-color="#3580E4"/>
</linearGradient>
<linearGradient id="paint3_linear_0_384" x1="-38.9692" y1="78.6905" x2="-39.4598" y2="129.797" gradientUnits="userSpaceOnUse">
<stop offset="0.1023" stop-color="#E4ECF8"/>
<stop offset="0.8855" stop-color="#B4D2FF"/>
</linearGradient>
<linearGradient id="paint4_linear_0_384" x1="-121.022" y1="85.8372" x2="-121.243" y2="136.332" gradientUnits="userSpaceOnUse">
<stop offset="0.1023" stop-color="#E4ECF8"/>
<stop offset="0.8855" stop-color="#B4D2FF"/>
</linearGradient>
<linearGradient id="paint5_linear_0_384" x1="95.8991" y1="83.198" x2="92.2705" y2="137.732" gradientUnits="userSpaceOnUse">
<stop offset="0.1023" stop-color="#E4ECF8"/>
<stop offset="0.8855" stop-color="#B4D2FF"/>
</linearGradient>
<linearGradient id="paint6_linear_0_384" x1="5.50545" y1="78.742" x2="4.66301" y2="130.456" gradientUnits="userSpaceOnUse">
<stop offset="0.1023" stop-color="#E4ECF8"/>
<stop offset="0.8855" stop-color="#B4D2FF"/>
</linearGradient>
<linearGradient id="paint7_linear_0_384" x1="112.42" y1="79.7916" x2="105.862" y2="136.052" gradientUnits="userSpaceOnUse">
<stop offset="0.1023" stop-color="#E4ECF8"/>
<stop offset="0.8855" stop-color="#B4D2FF"/>
</linearGradient>
<linearGradient id="paint8_linear_0_384" x1="107.608" y1="89.0277" x2="103.979" y2="143.561" gradientUnits="userSpaceOnUse">
<stop offset="0.1023" stop-color="#E4ECF8"/>
<stop offset="0.8855" stop-color="#B4D2FF"/>
</linearGradient>
<linearGradient id="paint9_linear_0_384" x1="38.353" y1="117.34" x2="37.9975" y2="155.051" gradientUnits="userSpaceOnUse">
<stop offset="0.0324" stop-color="#E1EBFF"/>
<stop offset="1" stop-color="#99BEFF"/>
</linearGradient>
<linearGradient id="paint10_linear_0_384" x1="48.1035" y1="52.1664" x2="37.7373" y2="125.185" gradientUnits="userSpaceOnUse">
<stop stop-color="#FFADA9"/>
<stop offset="1" stop-color="#FF6559"/>
</linearGradient>
<linearGradient id="paint11_linear_0_384" x1="47.0504" y1="41.4774" x2="42.3926" y2="88.4219" gradientUnits="userSpaceOnUse">
<stop offset="0.0324" stop-color="#E1EBFF"/>
<stop offset="1" stop-color="#99BEFF"/>
</linearGradient>
<linearGradient id="paint12_linear_0_384" x1="-244.695" y1="47.7545" x2="-244.716" y2="95.7494" gradientUnits="userSpaceOnUse">
<stop offset="0.0324" stop-color="#E1EBFF"/>
<stop offset="1" stop-color="#99BEFF"/>
</linearGradient>
<linearGradient id="paint13_linear_0_384" x1="-4.49366" y1="46.5208" x2="-4.72088" y2="90.9881" gradientUnits="userSpaceOnUse">
<stop offset="0.0324" stop-color="#E1EBFF"/>
<stop offset="1" stop-color="#99BEFF"/>
</linearGradient>
<linearGradient id="paint14_linear_0_384" x1="233.542" y1="95.5052" x2="180.54" y2="105.921" gradientUnits="userSpaceOnUse">
<stop offset="0.1023" stop-color="white"/>
<stop offset="0.8855" stop-color="#E3EBFD"/>
</linearGradient>
<linearGradient id="paint15_linear_0_384" x1="233.054" y1="28.297" x2="259.446" y2="46.6166" gradientUnits="userSpaceOnUse">
<stop offset="0.1023" stop-color="#FFAFBC"/>
<stop offset="0.8855" stop-color="#FFDDDC"/>
</linearGradient>
<linearGradient id="paint16_linear_0_384" x1="232.643" y1="22.8528" x2="253.878" y2="50.5302" gradientUnits="userSpaceOnUse">
<stop offset="0.1023" stop-color="#FFAFBC"/>
<stop offset="0.8855" stop-color="#FFDDDC"/>
</linearGradient>
<linearGradient id="paint17_linear_0_384" x1="257.564" y1="1.14396" x2="253.415" y2="26.3982" gradientUnits="userSpaceOnUse">
<stop offset="0.1023" stop-color="#915758"/>
<stop offset="0.8855" stop-color="#2C090B"/>
</linearGradient>
<linearGradient id="paint18_linear_0_384" x1="239.692" y1="19.763" x2="261.185" y2="46.0421" gradientUnits="userSpaceOnUse">
<stop offset="0.1023" stop-color="#FFAFBC"/>
<stop offset="0.8855" stop-color="#FFDDDC"/>
</linearGradient>
<linearGradient id="paint19_linear_0_384" x1="242.742" y1="0.200441" x2="240.646" y2="25.816" gradientUnits="userSpaceOnUse">
<stop offset="0.1023" stop-color="#915758"/>
<stop offset="0.8855" stop-color="#2C090B"/>
</linearGradient>
<linearGradient id="paint20_linear_0_384" x1="191.2" y1="308" x2="220" y2="308" gradientUnits="userSpaceOnUse">
<stop offset="0.1023" stop-color="#FCADBA"/>
<stop offset="0.8855" stop-color="#FBDAD9"/>
</linearGradient>
<linearGradient id="paint21_linear_0_384" x1="195.585" y1="289.29" x2="216.632" y2="289.29" gradientUnits="userSpaceOnUse">
<stop offset="0.1011" stop-color="#FF7638"/>
<stop offset="0.8855" stop-color="#FF3929"/>
</linearGradient>
<linearGradient id="paint22_linear_0_384" x1="268.8" y1="306.4" x2="304" y2="306.4" gradientUnits="userSpaceOnUse">
<stop offset="0.1023" stop-color="#FCADBA"/>
<stop offset="0.8855" stop-color="#FBDAD9"/>
</linearGradient>
<linearGradient id="paint23_linear_0_384" x1="274.571" y1="283.149" x2="302.062" y2="283.149" gradientUnits="userSpaceOnUse">
<stop offset="0.1023" stop-color="#FCADBA"/>
<stop offset="0.8855" stop-color="#FBDAD9"/>
</linearGradient>
<linearGradient id="paint24_linear_0_384" x1="272.757" y1="284.525" x2="295.433" y2="284.525" gradientUnits="userSpaceOnUse">
<stop offset="0.1011" stop-color="#FF7638"/>
<stop offset="0.8855" stop-color="#FF3929"/>
</linearGradient>
<linearGradient id="paint25_linear_0_384" x1="154.4" y1="312.8" x2="212" y2="312.8" gradientUnits="userSpaceOnUse">
<stop offset="0.1023" stop-color="#915758"/>
<stop offset="0.8855" stop-color="#2C090B"/>
</linearGradient>
<linearGradient id="paint26_linear_0_384" x1="255.2" y1="316" x2="305.6" y2="316" gradientUnits="userSpaceOnUse">
<stop offset="0.1023" stop-color="#915758"/>
<stop offset="0.8855" stop-color="#2C090B"/>
</linearGradient>
<linearGradient id="paint27_linear_0_384" x1="252" y1="52.8" x2="272" y2="52.8" gradientUnits="userSpaceOnUse">
<stop stop-color="#FFADA9"/>
<stop offset="1" stop-color="#FF6559"/>
</linearGradient>
<linearGradient id="paint28_linear_0_384" x1="197.6" y1="280" x2="262.4" y2="280" gradientUnits="userSpaceOnUse">
<stop stop-color="#98C5FF"/>
<stop offset="1" stop-color="#3580E4"/>
</linearGradient>
<linearGradient id="paint29_linear_0_384" x1="211.945" y1="245.047" x2="252.179" y2="245.047" gradientUnits="userSpaceOnUse">
<stop stop-color="#98C5FF"/>
<stop offset="1" stop-color="#3580E4"/>
</linearGradient>
<linearGradient id="paint30_linear_0_384" x1="220" y1="282.4" x2="295.2" y2="282.4" gradientUnits="userSpaceOnUse">
<stop stop-color="#98C5FF"/>
<stop offset="0.6481" stop-color="#3580E4"/>
</linearGradient>
<linearGradient id="paint31_linear_0_384" x1="214.457" y1="175.811" x2="278.806" y2="175.811" gradientUnits="userSpaceOnUse">
<stop stop-color="#98C5FF"/>
<stop offset="0.6481" stop-color="#3580E4"/>
</linearGradient>
<linearGradient id="paint32_linear_0_384" x1="250.034" y1="238.055" x2="287.523" y2="238.055" gradientUnits="userSpaceOnUse">
<stop stop-color="#98C5FF"/>
<stop offset="0.6481" stop-color="#3580E4"/>
</linearGradient>
<linearGradient id="paint33_linear_0_384" x1="241.848" y1="179.498" x2="321.375" y2="123.651" gradientUnits="userSpaceOnUse">
<stop stop-color="#FFADA9"/>
<stop offset="1" stop-color="#FF6559"/>
</linearGradient>
<linearGradient id="paint34_linear_0_384" x1="162.854" y1="148.745" x2="165.249" y2="144.244" gradientUnits="userSpaceOnUse">
<stop stop-color="#FFADA9"/>
<stop offset="1" stop-color="#FF6559"/>
</linearGradient>
<linearGradient id="paint35_linear_0_384" x1="158.824" y1="119.235" x2="239.139" y2="120.009" gradientUnits="userSpaceOnUse">
<stop stop-color="#FFE5CF"/>
<stop offset="1" stop-color="#FFAE6C"/>
</linearGradient>
<linearGradient id="paint36_linear_0_384" x1="165.202" y1="181.856" x2="185.993" y2="186.522" gradientUnits="userSpaceOnUse">
<stop stop-color="#FFE5CF"/>
<stop offset="1" stop-color="#FFAE6C"/>
</linearGradient>
<linearGradient id="paint37_linear_0_384" x1="173.768" y1="71.8266" x2="186.021" y2="73.1223" gradientUnits="userSpaceOnUse">
<stop stop-color="#FFE5CF"/>
<stop offset="1" stop-color="#FFAE6C"/>
</linearGradient>
<linearGradient id="paint38_linear_0_384" x1="168.8" y1="112.8" x2="208.8" y2="112.8" gradientUnits="userSpaceOnUse">
<stop offset="0.1023" stop-color="#FCADBA"/>
<stop offset="0.8855" stop-color="#FBDAD9"/>
</linearGradient>
<linearGradient id="paint39_linear_0_384" x1="188.643" y1="115.396" x2="197.287" y2="115.396" gradientUnits="userSpaceOnUse">
<stop offset="0.1011" stop-color="#FF7638"/>
<stop offset="0.8855" stop-color="#FF3929"/>
</linearGradient>
<linearGradient id="paint40_linear_0_384" x1="220.8" y1="237.6" x2="305.6" y2="237.6" gradientUnits="userSpaceOnUse">
<stop offset="0.1023" stop-color="white"/>
<stop offset="0.8855" stop-color="#E3EBFD"/>
</linearGradient>
<linearGradient id="paint41_linear_0_384" x1="293.913" y1="182.639" x2="273.969" y2="120.424" gradientUnits="userSpaceOnUse">
<stop offset="0.1023" stop-color="white"/>
<stop offset="0.8855" stop-color="#E3EBFD"/>
</linearGradient>
<linearGradient id="paint42_linear_0_384" x1="214.385" y1="148.979" x2="260.321" y2="148.979" gradientUnits="userSpaceOnUse">
<stop offset="0.1023" stop-color="white"/>
<stop offset="0.8855" stop-color="#CDDEFD"/>
</linearGradient>
<linearGradient id="paint43_linear_0_384" x1="238.454" y1="77.6893" x2="249.952" y2="77.6893" gradientUnits="userSpaceOnUse">
<stop stop-color="#98C5FF"/>
<stop offset="1" stop-color="#3580E4"/>
</linearGradient>
<linearGradient id="paint44_linear_0_384" x1="235.769" y1="71.1723" x2="235.804" y2="78.9586" gradientUnits="userSpaceOnUse">
<stop stop-color="#00BEDE"/>
<stop offset="0.9965" stop-color="#4A8BFD"/>
</linearGradient>
<linearGradient id="paint45_linear_0_384" x1="243.971" y1="67.2185" x2="243.889" y2="69.7423" gradientUnits="userSpaceOnUse">
<stop stop-color="#FFE5CF"/>
<stop offset="1" stop-color="#FFAE6C"/>
</linearGradient>
<linearGradient id="paint46_linear_0_384" x1="278.202" y1="-94.196" x2="278.314" y2="-93.3716" gradientUnits="userSpaceOnUse">
<stop stop-color="#FFE5CF"/>
<stop offset="1" stop-color="#FFAE6C"/>
</linearGradient>
<linearGradient id="paint47_linear_0_384" x1="263.548" y1="-97.665" x2="263.742" y2="-87.3354" gradientUnits="userSpaceOnUse">
<stop stop-color="#FFE5CF"/>
<stop offset="1" stop-color="#FFAE6C"/>
</linearGradient>
<linearGradient id="paint48_linear_0_384" x1="222.135" y1="195.663" x2="303.158" y2="91.5639" gradientUnits="userSpaceOnUse">
<stop offset="0.1023" stop-color="white"/>
<stop offset="0.8855" stop-color="#E3EBFD"/>
</linearGradient>
<linearGradient id="paint49_linear_0_384" x1="248.114" y1="-2.57488" x2="248.021" y2="10.8687" gradientUnits="userSpaceOnUse">
<stop offset="0.1023" stop-color="white"/>
<stop offset="0.8855" stop-color="#E3EBFD"/>
</linearGradient>
<linearGradient id="paint50_linear_0_384" x1="263.332" y1="-0.834059" x2="263.121" y2="3.46458" gradientUnits="userSpaceOnUse">
<stop offset="0.1023" stop-color="white"/>
<stop offset="0.8855" stop-color="#DDE4FD"/>
</linearGradient>
<linearGradient id="paint51_linear_0_384" x1="126.199" y1="192.887" x2="126.223" y2="177.743" gradientUnits="userSpaceOnUse">
<stop stop-color="#00A6F0"/>
<stop offset="1" stop-color="#006FF1"/>
</linearGradient>
<linearGradient id="paint52_linear_0_384" x1="85.2761" y1="199.284" x2="83.8623" y2="189.019" gradientUnits="userSpaceOnUse">
<stop stop-color="#98C5FF"/>
<stop offset="1" stop-color="#3580E4"/>
</linearGradient>
<linearGradient id="paint53_linear_0_384" x1="79.2" y1="404" x2="158.4" y2="404" gradientUnits="userSpaceOnUse">
<stop stop-color="#77C1BC"/>
<stop offset="1" stop-color="#34A595"/>
</linearGradient>
<linearGradient id="paint54_linear_0_384" x1="131.575" y1="153.255" x2="8.6218" y2="153.255" gradientUnits="userSpaceOnUse">
<stop stop-color="#77C1BC"/>
<stop offset="1" stop-color="#34A595"/>
</linearGradient>
<linearGradient id="paint55_linear_0_384" x1="74.4" y1="186.4" x2="143.2" y2="186.4" gradientUnits="userSpaceOnUse">
<stop offset="0.1023" stop-color="#915758"/>
<stop offset="0.8855" stop-color="#2C090B"/>
</linearGradient>
<linearGradient id="paint56_linear_0_384" x1="69.3292" y1="173.32" x2="70.6976" y2="173.32" gradientUnits="userSpaceOnUse">
<stop offset="0.1023" stop-color="#915758"/>
<stop offset="0.8855" stop-color="#2C090B"/>
</linearGradient>
<linearGradient id="paint57_linear_0_384" x1="63.1172" y1="173.32" x2="64.4855" y2="173.32" gradientUnits="userSpaceOnUse">
<stop offset="0.1023" stop-color="#915758"/>
<stop offset="0.8855" stop-color="#2C090B"/>
</linearGradient>
<linearGradient id="paint58_linear_0_384" x1="44.481" y1="173.32" x2="45.8494" y2="173.32" gradientUnits="userSpaceOnUse">
<stop offset="0.1023" stop-color="#915758"/>
<stop offset="0.8855" stop-color="#2C090B"/>
</linearGradient>
<linearGradient id="paint59_linear_0_384" x1="38.269" y1="173.32" x2="39.6374" y2="173.32" gradientUnits="userSpaceOnUse">
<stop offset="0.1023" stop-color="#915758"/>
<stop offset="0.8855" stop-color="#2C090B"/>
</linearGradient>
<linearGradient id="paint60_linear_0_384" x1="32.0569" y1="173.32" x2="33.4253" y2="173.32" gradientUnits="userSpaceOnUse">
<stop offset="0.1023" stop-color="#915758"/>
<stop offset="0.8855" stop-color="#2C090B"/>
</linearGradient>
<linearGradient id="paint61_linear_0_384" x1="25.8448" y1="173.32" x2="27.2132" y2="173.32" gradientUnits="userSpaceOnUse">
<stop offset="0.1023" stop-color="#915758"/>
<stop offset="0.8855" stop-color="#2C090B"/>
</linearGradient>
<linearGradient id="paint62_linear_0_384" x1="19.6328" y1="173.32" x2="21.0012" y2="173.32" gradientUnits="userSpaceOnUse">
<stop offset="0.1023" stop-color="#915758"/>
<stop offset="0.8855" stop-color="#2C090B"/>
</linearGradient>
<linearGradient id="paint63_linear_0_384" x1="13.4207" y1="173.32" x2="14.7891" y2="173.32" gradientUnits="userSpaceOnUse">
<stop offset="0.1023" stop-color="#915758"/>
<stop offset="0.8855" stop-color="#2C090B"/>
</linearGradient>
<linearGradient id="paint64_linear_0_384" x1="56.9051" y1="173.32" x2="58.2735" y2="173.32" gradientUnits="userSpaceOnUse">
<stop offset="0.1023" stop-color="#915758"/>
<stop offset="0.8855" stop-color="#2C090B"/>
</linearGradient>
<linearGradient id="paint65_linear_0_384" x1="50.6931" y1="173.32" x2="52.0614" y2="173.32" gradientUnits="userSpaceOnUse">
<stop offset="0.1023" stop-color="#915758"/>
<stop offset="0.8855" stop-color="#2C090B"/>
</linearGradient>
<linearGradient id="paint66_linear_0_384" x1="70.4" y1="352" x2="120.8" y2="352" gradientUnits="userSpaceOnUse">
<stop stop-color="#FFCC92"/>
<stop offset="1" stop-color="#F79748"/>
</linearGradient>
<linearGradient id="paint67_linear_0_384" x1="132.511" y1="224.408" x2="132.566" y2="211.992" gradientUnits="userSpaceOnUse">
<stop offset="0.1023" stop-color="#DCDFF8"/>
<stop offset="0.8855" stop-color="#F5F7FE"/>
</linearGradient>
<linearGradient id="paint68_linear_0_384" x1="121.827" y1="222.519" x2="122.265" y2="202.826" gradientUnits="userSpaceOnUse">
<stop offset="0.1023" stop-color="#DCDFF8"/>
<stop offset="0.8855" stop-color="#F5F7FE"/>
</linearGradient>
<linearGradient id="paint69_linear_0_384" x1="70.4" y1="288.8" x2="135.2" y2="288.8" gradientUnits="userSpaceOnUse">
<stop offset="0.1023" stop-color="#DCDFF8"/>
<stop offset="0.8855" stop-color="#F5F7FE"/>
</linearGradient>
<linearGradient id="paint70_linear_0_384" x1="130.795" y1="307.444" x2="201.275" y2="191.701" gradientUnits="userSpaceOnUse">
<stop offset="0.1023" stop-color="#DCDFF8"/>
<stop offset="0.8855" stop-color="#F5F7FE"/>
</linearGradient>
<linearGradient id="paint71_linear_0_384" x1="74.4" y1="213.6" x2="130.4" y2="213.6" gradientUnits="userSpaceOnUse">
<stop stop-color="#FFADA9"/>
<stop offset="1" stop-color="#FF6559"/>
</linearGradient>
<linearGradient id="paint72_linear_0_384" x1="78.7853" y1="210.75" x2="79.9125" y2="210.75" gradientUnits="userSpaceOnUse">
<stop stop-color="#FFADA9"/>
<stop offset="1" stop-color="#FF6559"/>
</linearGradient>
<linearGradient id="paint73_linear_0_384" x1="83.9025" y1="210.75" x2="85.0297" y2="210.75" gradientUnits="userSpaceOnUse">
<stop stop-color="#FFADA9"/>
<stop offset="1" stop-color="#FF6559"/>
</linearGradient>
<linearGradient id="paint74_linear_0_384" x1="99.2543" y1="210.75" x2="100.381" y2="210.75" gradientUnits="userSpaceOnUse">
<stop stop-color="#FFADA9"/>
<stop offset="1" stop-color="#FF6559"/>
</linearGradient>
<linearGradient id="paint75_linear_0_384" x1="104.372" y1="210.75" x2="105.499" y2="210.75" gradientUnits="userSpaceOnUse">
<stop stop-color="#FFADA9"/>
<stop offset="1" stop-color="#FF6559"/>
</linearGradient>
<linearGradient id="paint76_linear_0_384" x1="109.489" y1="210.75" x2="110.616" y2="210.75" gradientUnits="userSpaceOnUse">
<stop stop-color="#FFADA9"/>
<stop offset="1" stop-color="#FF6559"/>
</linearGradient>
<linearGradient id="paint77_linear_0_384" x1="114.606" y1="210.75" x2="115.733" y2="210.75" gradientUnits="userSpaceOnUse">
<stop stop-color="#FFADA9"/>
<stop offset="1" stop-color="#FF6559"/>
</linearGradient>
<linearGradient id="paint78_linear_0_384" x1="119.723" y1="210.75" x2="120.85" y2="210.75" gradientUnits="userSpaceOnUse">
<stop stop-color="#FFADA9"/>
<stop offset="1" stop-color="#FF6559"/>
</linearGradient>
<linearGradient id="paint79_linear_0_384" x1="124.84" y1="210.75" x2="125.968" y2="210.75" gradientUnits="userSpaceOnUse">
<stop stop-color="#FFADA9"/>
<stop offset="1" stop-color="#FF6559"/>
</linearGradient>
<linearGradient id="paint80_linear_0_384" x1="89.0198" y1="210.75" x2="90.147" y2="210.75" gradientUnits="userSpaceOnUse">
<stop stop-color="#FFADA9"/>
<stop offset="1" stop-color="#FF6559"/>
</linearGradient>
<linearGradient id="paint81_linear_0_384" x1="94.137" y1="210.75" x2="95.2642" y2="210.75" gradientUnits="userSpaceOnUse">
<stop stop-color="#FFADA9"/>
<stop offset="1" stop-color="#FF6559"/>
</linearGradient>
<linearGradient id="paint82_linear_0_384" x1="77.6" y1="279.2" x2="119.2" y2="279.2" gradientUnits="userSpaceOnUse">
<stop stop-color="#FFADA9"/>
<stop offset="1" stop-color="#FF6559"/>
</linearGradient>
<linearGradient id="paint83_linear_0_384" x1="188.394" y1="300.027" x2="188.113" y2="263.426" gradientUnits="userSpaceOnUse">
<stop offset="0.1023" stop-color="#DCDFF8"/>
<stop offset="0.8855" stop-color="#F5F7FE"/>
</linearGradient>
<linearGradient id="paint84_linear_0_384" x1="147.903" y1="264.162" x2="148.163" y2="288.173" gradientUnits="userSpaceOnUse">
<stop stop-color="#98C5FF"/>
<stop offset="1" stop-color="#3580E4"/>
</linearGradient>
<linearGradient id="paint85_linear_0_384" x1="134.479" y1="287.412" x2="138.507" y2="266.132" gradientUnits="userSpaceOnUse">
<stop offset="0.1023" stop-color="#DCDFF8"/>
<stop offset="0.8855" stop-color="#F5F7FE"/>
</linearGradient>
</defs>
</svg>
