<svg width="14" height="14" viewBox="0 0 14 14" fill="none" xmlns="http://www.w3.org/2000/svg">
<path d="M10.9311 6.35193C11.8667 6.56619 12.7989 5.98138 13.0132 5.04573C13.2274 4.11008 12.6426 3.17789 11.707 2.96363C10.7713 2.74937 9.83913 3.33418 9.62487 4.26983C9.41061 5.20548 9.99541 6.13767 10.9311 6.35193Z" stroke="black" stroke-linecap="round" stroke-linejoin="round"/>
<path d="M1.73926 1.65625H0.645508V5.25C0.645508 7.02767 2.08659 8.46875 3.86426 8.46875C5.64192 8.46875 7.08301 7.02767 7.08301 5.25V1.65625H5.98926" stroke="black" stroke-linecap="round" stroke-linejoin="round"/>
<path d="M3.92676 8.5V9.70776C3.92676 11.7504 5.58263 13.4062 7.62524 13.4062C9.66786 13.4062 11.3237 11.7504 11.3237 9.70776V6.59375" stroke="black" stroke-linecap="round" stroke-linejoin="round"/>
</svg>
