<svg width="14" height="14" viewBox="0 0 14 14" fill="none" xmlns="http://www.w3.org/2000/svg">
<g clip-path="url(#clip0_23_23)">
<path d="M9.66658 3.91667C9.66658 5.25135 8.5846 6.33333 7.24992 6.33333C5.91523 6.33333 4.83325 5.25135 4.83325 3.91667C4.83325 2.58198 5.91523 1.5 7.24992 1.5C8.5846 1.5 9.66658 2.58198 9.66658 3.91667Z" stroke="black" stroke-linecap="round" stroke-linejoin="round"/>
<path d="M11.3832 11.0784L11.3831 11.0784C10.9869 10.3779 10.4196 9.78926 9.7342 9.36747L9.99534 8.94312L9.7342 9.36747C9.04881 8.94569 8.26769 8.70451 7.46382 8.66644L11.3832 11.0784ZM11.3832 11.0784C11.779 11.7781 11.9912 12.5667 12 13.3706V13.5003H7.25H2.5V13.3705C2.50883 12.5667 2.72103 11.7781 3.11684 11.0784L3.11685 11.0784C3.51309 10.3779 4.0804 9.78926 4.7658 9.36747L4.7658 9.36747M11.3832 11.0784L4.7658 9.36747M4.7658 9.36747C5.45119 8.94569 6.23231 8.70451 7.03618 8.66644L4.7658 9.36747ZM7.25 8.66113C7.17885 8.6613 7.10756 8.66307 7.03621 8.66644L7.25 8.66113ZM7.25 8.66113C7.32115 8.6613 7.39244 8.66307 7.46379 8.66644L7.25 8.66113Z" stroke="black" stroke-linecap="round" stroke-linejoin="round"/>
</g>
<defs>
<clipPath id="clip0_23_23">
<rect width="14" height="14" fill="white"/>
</clipPath>
</defs>
</svg>
