<svg width="16" height="16" viewBox="0 0 16 16" fill="none" xmlns="http://www.w3.org/2000/svg">
<g clip-path="url(#clip0_16_23)">
<path d="M10.2858 1.57153C10.2858 1.01925 9.8381 0.571533 9.28582 0.571533H6.71439C6.16211 0.571533 5.71439 1.01925 5.71439 1.57153V4.71439C5.71439 5.26667 5.26667 5.71439 4.71439 5.71439H1.57153C1.01925 5.71439 0.571533 6.16211 0.571533 6.71439V9.28582C0.571533 9.8381 1.01925 10.2858 1.57153 10.2858H4.71439C5.26667 10.2858 5.71439 10.7335 5.71439 11.2858V14.4287C5.71439 14.981 6.16211 15.4287 6.71439 15.4287H9.28582C9.8381 15.4287 10.2858 14.981 10.2858 14.4287V11.2858C10.2858 10.7335 10.7335 10.2858 11.2858 10.2858H14.4287C14.981 10.2858 15.4287 9.8381 15.4287 9.28582V6.71439C15.4287 6.16211 14.981 5.71439 14.4287 5.71439H11.2858C10.7335 5.71439 10.2858 5.26667 10.2858 4.71439V1.57153Z" fill="url(#paint0_linear_16_23)"/>
</g>
<defs>
<linearGradient id="paint0_linear_16_23" x1="0.815316" y1="3.43057" x2="11.5139" y2="11.557" gradientUnits="userSpaceOnUse">
<stop offset="0.0441923" stop-color="#0335B4"/>
<stop offset="1" stop-color="#2EA2E6"/>
</linearGradient>
<clipPath id="clip0_16_23">
<rect width="16" height="16" fill="white"/>
</clipPath>
</defs>
</svg>
