<svg width="59" height="10" viewBox="0 0 59 10" fill="none" xmlns="http://www.w3.org/2000/svg">
<path d="M10.4961 9V3.3457L7.50781 9H5.42188L2.43359 3.3457V9H0.259766V0.949219H3.21289L6.46484 7.04297L9.7168 0.949219H12.6582V9H10.4961ZM15.1777 9V0.949219H23.3281V2.66602H17.4102V3.99609H23.0234V5.71289H17.4102V7.2832H23.4102V9H15.1777ZM35.375 4.96875C35.375 5.48438 35.3184 5.94336 35.2051 6.3457C35.0918 6.74414 34.9316 7.0918 34.7246 7.38867C34.5215 7.68555 34.2754 7.9375 33.9863 8.14453C33.7012 8.35156 33.3828 8.51758 33.0312 8.64258C32.6797 8.76758 32.3008 8.85938 31.8945 8.91797C31.4883 8.97266 31.0645 9 30.623 9H25.5137V0.949219H30.6113C31.0527 0.949219 31.4766 0.978516 31.8828 1.03711C32.2891 1.0918 32.668 1.18164 33.0195 1.30664C33.375 1.43164 33.6973 1.59766 33.9863 1.80469C34.2754 2.00781 34.5215 2.25977 34.7246 2.56055C34.9316 2.85742 35.0918 3.20508 35.2051 3.60352C35.3184 4.00195 35.375 4.45703 35.375 4.96875ZM33.1836 4.96875C33.1836 4.58203 33.1328 4.24609 33.0312 3.96094C32.9336 3.67578 32.7734 3.44141 32.5508 3.25781C32.332 3.07031 32.0449 2.93164 31.6895 2.8418C31.334 2.74805 30.9004 2.70117 30.3887 2.70117H27.6875V7.24805H30.3887C30.9004 7.24805 31.334 7.20312 31.6895 7.11328C32.0449 7.01953 32.332 6.87891 32.5508 6.69141C32.7734 6.5 32.9336 6.26172 33.0312 5.97656C33.1328 5.69141 33.1836 5.35547 33.1836 4.96875ZM46.8652 6.28711C46.8652 6.68945 46.7656 7.06836 46.5664 7.42383C46.3672 7.7793 46.0684 8.08984 45.6699 8.35547C45.2715 8.62109 44.7734 8.83203 44.1758 8.98828C43.582 9.14062 42.8867 9.2168 42.0898 9.2168C41.293 9.2168 40.5938 9.14062 39.9922 8.98828C39.3945 8.83203 38.8965 8.62109 38.498 8.35547C38.0996 8.08984 37.8008 7.7793 37.6016 7.42383C37.4023 7.06836 37.3027 6.68945 37.3027 6.28711V0.949219H39.4707V5.50781C39.4707 5.77734 39.5039 6.0332 39.5703 6.27539C39.6406 6.51367 39.7695 6.72266 39.957 6.90234C40.1484 7.08203 40.4141 7.22461 40.7539 7.33008C41.0977 7.43555 41.543 7.48828 42.0898 7.48828C42.6328 7.48828 43.0742 7.43555 43.4141 7.33008C43.7539 7.22461 44.0176 7.08203 44.2051 6.90234C44.3965 6.72266 44.5254 6.51367 44.5918 6.27539C44.6582 6.0332 44.6914 5.77734 44.6914 5.50781V0.949219H46.8652V6.28711ZM58.373 3.69727C58.373 4.09961 58.3145 4.4707 58.1973 4.81055C58.0801 5.14648 57.8906 5.4375 57.6289 5.68359C57.3711 5.92578 57.0352 6.11523 56.6211 6.25195C56.207 6.38867 55.7031 6.45703 55.1094 6.45703H51.5V9H49.3262V0.949219H55.1094C55.7031 0.949219 56.207 1.01758 56.6211 1.1543C57.0352 1.28711 57.3711 1.47656 57.6289 1.72266C57.8906 1.96484 58.0801 2.25391 58.1973 2.58984C58.3145 2.92578 58.373 3.29492 58.373 3.69727ZM56.1758 3.73242C56.1758 3.54492 56.1484 3.38477 56.0938 3.25195C56.043 3.11523 55.957 3.00391 55.8359 2.91797C55.7148 2.83203 55.5566 2.76953 55.3613 2.73047C55.166 2.6875 54.9258 2.66602 54.6406 2.66602H51.5V4.74023H54.6406C54.9258 4.74023 55.166 4.72461 55.3613 4.69336C55.5566 4.6582 55.7148 4.60156 55.8359 4.52344C55.957 4.44141 56.043 4.33594 56.0938 4.20703C56.1484 4.07812 56.1758 3.91992 56.1758 3.73242Z" fill="url(#paint0_linear_24_29)"/>
<defs>
<linearGradient id="paint0_linear_24_29" x1="-1" y1="5.6" x2="67.5714" y2="5.6" gradientUnits="userSpaceOnUse">
<stop stop-color="#0335B4"/>
<stop offset="1" stop-color="#2EA2E6"/>
</linearGradient>
</defs>
</svg>
