<svg width="401" height="74" viewBox="0 0 401 74" fill="none" xmlns="http://www.w3.org/2000/svg">
<path d="M31.9004 0.822266L39.0986 20.3867L46.8916 0.822266H54.7871L43.4668 29H35.0176L27.6553 10.0508L20.3135 29H11.8643L0.523438 0.822266H8.43945L16.0684 19.9766L23.4307 0.822266H31.9004ZM90.8604 27.6055C88.5498 28.3711 86.2393 28.918 83.9287 29.2461C81.6318 29.5879 79.2803 29.7588 76.874 29.7588C73.7979 29.7588 71.0566 29.4307 68.6504 28.7744C66.2578 28.1045 64.2412 27.1406 62.6006 25.8828C60.96 24.625 59.709 23.0869 58.8477 21.2686C57.9863 19.4502 57.5557 17.3926 57.5557 15.0957C57.5557 12.9629 57.9863 10.9873 58.8477 9.16895C59.7227 7.33691 60.9531 5.75098 62.5391 4.41113C64.1387 3.05762 66.0664 2.00488 68.3223 1.25293C70.5781 0.487305 73.0938 0.104492 75.8691 0.104492C78.4258 0.104492 80.7637 0.453125 82.8828 1.15039C85.0156 1.83398 86.8408 2.85254 88.3584 4.20605C89.8896 5.55957 91.0723 7.22754 91.9062 9.20996C92.7539 11.1924 93.1777 13.4756 93.1777 16.0596V17.9463H65.4102C65.6562 18.835 66.0596 19.6484 66.6201 20.3867C67.1943 21.125 67.9668 21.7539 68.9375 22.2734C69.9082 22.793 71.0977 23.1963 72.5059 23.4834C73.9277 23.7705 75.623 23.9141 77.5918 23.9141C78.9863 23.9141 80.3535 23.832 81.6934 23.668C83.0332 23.4902 84.2842 23.2646 85.4463 22.9912C86.6084 22.7041 87.6543 22.3896 88.584 22.0479C89.5273 21.7061 90.2861 21.3643 90.8604 21.0225V27.6055ZM85.6104 12.3682C85.542 11.6709 85.3301 10.9531 84.9746 10.2148C84.6328 9.46289 84.0859 8.78613 83.334 8.18457C82.582 7.58301 81.5977 7.09082 80.3809 6.70801C79.1641 6.31152 77.6465 6.11328 75.8281 6.11328C74.1191 6.11328 72.6426 6.3252 71.3984 6.74902C70.1543 7.17285 69.1084 7.69922 68.2607 8.32812C67.4268 8.95703 66.7773 9.63379 66.3125 10.3584C65.8477 11.083 65.5469 11.7529 65.4102 12.3682H85.6104ZM107.697 16.9414C107.697 18.1172 107.807 19.0811 108.025 19.833C108.244 20.5713 108.6 21.1592 109.092 21.5967C109.584 22.0342 110.22 22.335 110.999 22.499C111.792 22.6631 112.763 22.7451 113.911 22.7451H128.349V29H112.353C110.138 29 108.251 28.8223 106.692 28.4668C105.147 28.0977 103.883 27.5371 102.898 26.7852C101.914 26.0195 101.196 25.0557 100.745 23.8936C100.308 22.7314 100.089 21.3506 100.089 19.751V0.822266H107.697V16.9414ZM165.509 27.0723C164.524 27.4824 163.533 27.8516 162.535 28.1797C161.537 28.5078 160.505 28.7881 159.438 29.0205C158.372 29.2666 157.244 29.4512 156.055 29.5742C154.879 29.6973 153.614 29.7588 152.261 29.7588C149.39 29.7588 146.744 29.4512 144.324 28.8359C141.918 28.2207 139.84 27.2979 138.09 26.0674C136.354 24.8232 135 23.2783 134.029 21.4326C133.059 19.5732 132.573 17.4062 132.573 14.9316C132.573 12.457 133.059 10.2969 134.029 8.45117C135 6.5918 136.354 5.04688 138.09 3.81641C139.84 2.57227 141.918 1.64258 144.324 1.02734C146.744 0.412109 149.39 0.104492 152.261 0.104492C153.614 0.104492 154.879 0.166016 156.055 0.289062C157.244 0.412109 158.372 0.59668 159.438 0.842773C160.505 1.0752 161.537 1.35547 162.535 1.68359C163.533 2.01172 164.524 2.38086 165.509 2.79102V9.64062C164.729 9.2168 163.909 8.7998 163.048 8.38965C162.187 7.96582 161.236 7.58984 160.197 7.26172C159.158 6.91992 158.017 6.64648 156.772 6.44141C155.528 6.22266 154.127 6.11328 152.568 6.11328C150.176 6.11328 148.187 6.35938 146.601 6.85156C145.028 7.34375 143.771 8 142.827 8.82031C141.884 9.64062 141.221 10.584 140.838 11.6504C140.455 12.7031 140.264 13.7969 140.264 14.9316C140.264 15.6836 140.346 16.4287 140.51 17.167C140.674 17.8916 140.947 18.582 141.33 19.2383C141.713 19.8809 142.212 20.4756 142.827 21.0225C143.442 21.5693 144.208 22.041 145.124 22.4375C146.04 22.834 147.106 23.1484 148.323 23.3809C149.554 23.5996 150.969 23.709 152.568 23.709C154.127 23.709 155.528 23.6133 156.772 23.4219C158.017 23.2168 159.158 22.9502 160.197 22.6221C161.236 22.2939 162.187 21.9248 163.048 21.5146C163.909 21.0908 164.729 20.6602 165.509 20.2227V27.0723ZM209.067 14.9316C209.067 17.3516 208.623 19.4912 207.734 21.3506C206.846 23.1963 205.574 24.7412 203.92 25.9854C202.266 27.2295 200.256 28.1729 197.891 28.8154C195.539 29.4443 192.894 29.7588 189.954 29.7588C187.015 29.7588 184.355 29.4443 181.977 28.8154C179.611 28.1729 177.595 27.2295 175.927 25.9854C174.259 24.7412 172.974 23.1963 172.071 21.3506C171.169 19.4912 170.718 17.3516 170.718 14.9316C170.718 12.5117 171.169 10.3789 172.071 8.5332C172.974 6.67383 174.259 5.12207 175.927 3.87793C177.595 2.63379 179.611 1.69727 181.977 1.06836C184.355 0.425781 187.015 0.104492 189.954 0.104492C192.894 0.104492 195.539 0.425781 197.891 1.06836C200.256 1.69727 202.266 2.63379 203.92 3.87793C205.574 5.12207 206.846 6.67383 207.734 8.5332C208.623 10.3789 209.067 12.5117 209.067 14.9316ZM201.377 14.9316C201.377 13.8789 201.206 12.833 200.864 11.7939C200.536 10.7412 199.941 9.79785 199.08 8.96387C198.232 8.12988 197.07 7.45312 195.594 6.93359C194.117 6.41406 192.237 6.1543 189.954 6.1543C188.423 6.1543 187.076 6.27734 185.914 6.52344C184.752 6.75586 183.747 7.08398 182.899 7.50781C182.052 7.93164 181.341 8.43066 180.767 9.00488C180.192 9.56543 179.734 10.1738 179.393 10.8301C179.051 11.4727 178.805 12.1494 178.654 12.8604C178.518 13.5576 178.449 14.248 178.449 14.9316C178.449 15.6289 178.518 16.333 178.654 17.0439C178.805 17.7549 179.051 18.4385 179.393 19.0947C179.734 19.7373 180.192 20.3389 180.767 20.8994C181.341 21.46 182.052 21.9521 182.899 22.376C183.747 22.7861 184.752 23.1143 185.914 23.3604C187.076 23.5928 188.423 23.709 189.954 23.709C192.237 23.709 194.117 23.4492 195.594 22.9297C197.07 22.4102 198.232 21.7334 199.08 20.8994C199.941 20.0654 200.536 19.1289 200.864 18.0898C201.206 17.0371 201.377 15.9844 201.377 14.9316ZM223.607 0.822266V3.91895C224.277 3.49512 225.002 3.05762 225.781 2.60645C226.574 2.15527 227.429 1.74512 228.345 1.37598C229.274 1.00684 230.266 0.706055 231.318 0.473633C232.385 0.227539 233.533 0.104492 234.764 0.104492C235.967 0.104492 237.02 0.234375 237.922 0.494141C238.824 0.740234 239.604 1.06836 240.26 1.47852C240.93 1.875 241.497 2.32617 241.962 2.83203C242.427 3.32422 242.83 3.81641 243.172 4.30859C244.143 3.67969 245.1 3.10547 246.043 2.58594C246.986 2.06641 247.937 1.62207 248.894 1.25293C249.851 0.883789 250.828 0.603516 251.826 0.412109C252.824 0.207031 253.863 0.104492 254.943 0.104492C256.666 0.104492 258.204 0.34375 259.558 0.822266C260.925 1.30078 262.08 1.95703 263.023 2.79102C263.967 3.625 264.685 4.60938 265.177 5.74414C265.683 6.86523 265.936 8.06836 265.936 9.35352V29H258.327V10.4404C258.327 9.68848 258.211 9.03906 257.979 8.49219C257.746 7.94531 257.432 7.50098 257.035 7.15918C256.652 6.81738 256.194 6.56445 255.661 6.40039C255.142 6.23633 254.588 6.1543 254 6.1543C251.266 6.1543 248.148 7.38477 244.648 9.8457C244.689 10.0781 244.717 10.3516 244.73 10.666C244.758 10.9805 244.771 11.2949 244.771 11.6094V29H237.163V10.2764C237.163 9.52441 237.047 8.88867 236.814 8.36914C236.582 7.83594 236.261 7.40527 235.851 7.07715C235.454 6.74902 234.989 6.5166 234.456 6.37988C233.937 6.22949 233.383 6.1543 232.795 6.1543C232.084 6.1543 231.332 6.25684 230.539 6.46191C229.76 6.66699 228.967 6.9541 228.16 7.32324C227.367 7.69238 226.581 8.12988 225.802 8.63574C225.036 9.1416 224.305 9.68848 223.607 10.2764V29H215.999V0.822266H223.607ZM306.069 27.6055C303.759 28.3711 301.448 28.918 299.138 29.2461C296.841 29.5879 294.489 29.7588 292.083 29.7588C289.007 29.7588 286.266 29.4307 283.859 28.7744C281.467 28.1045 279.45 27.1406 277.81 25.8828C276.169 24.625 274.918 23.0869 274.057 21.2686C273.195 19.4502 272.765 17.3926 272.765 15.0957C272.765 12.9629 273.195 10.9873 274.057 9.16895C274.932 7.33691 276.162 5.75098 277.748 4.41113C279.348 3.05762 281.275 2.00488 283.531 1.25293C285.787 0.487305 288.303 0.104492 291.078 0.104492C293.635 0.104492 295.973 0.453125 298.092 1.15039C300.225 1.83398 302.05 2.85254 303.567 4.20605C305.099 5.55957 306.281 7.22754 307.115 9.20996C307.963 11.1924 308.387 13.4756 308.387 16.0596V17.9463H280.619C280.865 18.835 281.269 19.6484 281.829 20.3867C282.403 21.125 283.176 21.7539 284.146 22.2734C285.117 22.793 286.307 23.1963 287.715 23.4834C289.137 23.7705 290.832 23.9141 292.801 23.9141C294.195 23.9141 295.562 23.832 296.902 23.668C298.242 23.4902 299.493 23.2646 300.655 22.9912C301.817 22.7041 302.863 22.3896 303.793 22.0479C304.736 21.7061 305.495 21.3643 306.069 21.0225V27.6055ZM300.819 12.3682C300.751 11.6709 300.539 10.9531 300.184 10.2148C299.842 9.46289 299.295 8.78613 298.543 8.18457C297.791 7.58301 296.807 7.09082 295.59 6.70801C294.373 6.31152 292.855 6.11328 291.037 6.11328C289.328 6.11328 287.852 6.3252 286.607 6.74902C285.363 7.17285 284.317 7.69922 283.47 8.32812C282.636 8.95703 281.986 9.63379 281.521 10.3584C281.057 11.083 280.756 11.7529 280.619 12.3682H300.819ZM346.88 6.9541V29H339.271V6.9541H327.315V0.822266H358.856V6.9541H346.88ZM400.364 14.9316C400.364 17.3516 399.92 19.4912 399.031 21.3506C398.143 23.1963 396.871 24.7412 395.217 25.9854C393.562 27.2295 391.553 28.1729 389.188 28.8154C386.836 29.4443 384.19 29.7588 381.251 29.7588C378.312 29.7588 375.652 29.4443 373.273 28.8154C370.908 28.1729 368.892 27.2295 367.224 25.9854C365.556 24.7412 364.271 23.1963 363.368 21.3506C362.466 19.4912 362.015 17.3516 362.015 14.9316C362.015 12.5117 362.466 10.3789 363.368 8.5332C364.271 6.67383 365.556 5.12207 367.224 3.87793C368.892 2.63379 370.908 1.69727 373.273 1.06836C375.652 0.425781 378.312 0.104492 381.251 0.104492C384.19 0.104492 386.836 0.425781 389.188 1.06836C391.553 1.69727 393.562 2.63379 395.217 3.87793C396.871 5.12207 398.143 6.67383 399.031 8.5332C399.92 10.3789 400.364 12.5117 400.364 14.9316ZM392.674 14.9316C392.674 13.8789 392.503 12.833 392.161 11.7939C391.833 10.7412 391.238 9.79785 390.377 8.96387C389.529 8.12988 388.367 7.45312 386.891 6.93359C385.414 6.41406 383.534 6.1543 381.251 6.1543C379.72 6.1543 378.373 6.27734 377.211 6.52344C376.049 6.75586 375.044 7.08398 374.196 7.50781C373.349 7.93164 372.638 8.43066 372.063 9.00488C371.489 9.56543 371.031 10.1738 370.689 10.8301C370.348 11.4727 370.102 12.1494 369.951 12.8604C369.814 13.5576 369.746 14.248 369.746 14.9316C369.746 15.6289 369.814 16.333 369.951 17.0439C370.102 17.7549 370.348 18.4385 370.689 19.0947C371.031 19.7373 371.489 20.3389 372.063 20.8994C372.638 21.46 373.349 21.9521 374.196 22.376C375.044 22.7861 376.049 23.1143 377.211 23.3604C378.373 23.5928 379.72 23.709 381.251 23.709C383.534 23.709 385.414 23.4492 386.891 22.9297C388.367 22.4102 389.529 21.7334 390.377 20.8994C391.238 20.0654 391.833 19.1289 392.161 18.0898C392.503 17.0371 392.674 15.9844 392.674 14.9316ZM136.88 73V53.21L126.421 73H119.12L108.661 53.21V73H101.053V44.8223H111.389L122.771 66.1504L134.152 44.8223H144.447V73H136.88ZM153.266 73V44.8223H181.792V50.8311H161.079V55.4863H180.726V61.4951H161.079V66.9912H182.079V73H153.266ZM223.956 58.8906C223.956 60.6953 223.758 62.3018 223.361 63.71C222.965 65.1045 222.404 66.3213 221.68 67.3604C220.969 68.3994 220.107 69.2812 219.096 70.0059C218.098 70.7305 216.983 71.3115 215.753 71.749C214.522 72.1865 213.196 72.5078 211.774 72.7129C210.353 72.9043 208.869 73 207.324 73H189.441V44.8223H207.283C208.828 44.8223 210.312 44.9248 211.733 45.1299C213.155 45.3213 214.481 45.6357 215.712 46.0732C216.956 46.5107 218.084 47.0918 219.096 47.8164C220.107 48.5273 220.969 49.4092 221.68 50.4619C222.404 51.501 222.965 52.7178 223.361 54.1123C223.758 55.5068 223.956 57.0996 223.956 58.8906ZM216.286 58.8906C216.286 57.5371 216.108 56.3613 215.753 55.3633C215.411 54.3652 214.851 53.5449 214.071 52.9023C213.306 52.2461 212.301 51.7607 211.057 51.4463C209.812 51.1182 208.295 50.9541 206.504 50.9541H197.05V66.8682H206.504C208.295 66.8682 209.812 66.7109 211.057 66.3965C212.301 66.0684 213.306 65.5762 214.071 64.9199C214.851 64.25 215.411 63.416 215.753 62.418C216.108 61.4199 216.286 60.2441 216.286 58.8906ZM264.172 63.5049C264.172 64.9131 263.823 66.2393 263.126 67.4834C262.429 68.7275 261.383 69.8145 259.988 70.7441C258.594 71.6738 256.851 72.4121 254.759 72.959C252.681 73.4922 250.247 73.7588 247.458 73.7588C244.669 73.7588 242.222 73.4922 240.116 72.959C238.024 72.4121 236.281 71.6738 234.887 70.7441C233.492 69.8145 232.446 68.7275 231.749 67.4834C231.052 66.2393 230.703 64.9131 230.703 63.5049V44.8223H238.291V60.7773C238.291 61.7207 238.407 62.6162 238.64 63.4639C238.886 64.2979 239.337 65.0293 239.993 65.6582C240.663 66.2871 241.593 66.7861 242.782 67.1553C243.985 67.5244 245.544 67.709 247.458 67.709C249.358 67.709 250.903 67.5244 252.093 67.1553C253.282 66.7861 254.205 66.2871 254.861 65.6582C255.531 65.0293 255.982 64.2979 256.215 63.4639C256.447 62.6162 256.563 61.7207 256.563 60.7773V44.8223H264.172V63.5049ZM304.449 54.4404C304.449 55.8486 304.244 57.1475 303.834 58.3369C303.424 59.5127 302.761 60.5312 301.845 61.3926C300.942 62.2402 299.767 62.9033 298.317 63.3818C296.868 63.8604 295.104 64.0996 293.026 64.0996H280.394V73H272.785V44.8223H293.026C295.104 44.8223 296.868 45.0615 298.317 45.54C299.767 46.0049 300.942 46.668 301.845 47.5293C302.761 48.377 303.424 49.3887 303.834 50.5645C304.244 51.7402 304.449 53.0322 304.449 54.4404ZM296.759 54.5635C296.759 53.9072 296.663 53.3467 296.472 52.8818C296.294 52.4033 295.993 52.0137 295.569 51.7129C295.146 51.4121 294.592 51.1934 293.908 51.0566C293.225 50.9062 292.384 50.8311 291.386 50.8311H280.394V58.0908H291.386C292.384 58.0908 293.225 58.0361 293.908 57.9268C294.592 57.8037 295.146 57.6055 295.569 57.332C295.993 57.0449 296.294 56.6758 296.472 56.2246C296.663 55.7734 296.759 55.2197 296.759 54.5635Z" fill="url(#paint0_linear_25_30)"/>
<defs>
<linearGradient id="paint0_linear_25_30" x1="-1.8616e-06" y1="36.0667" x2="460.571" y2="36.0667" gradientUnits="userSpaceOnUse">
<stop stop-color="#0335B4"/>
<stop offset="1" stop-color="#2EA2E6"/>
</linearGradient>
</defs>
</svg>
