<svg width="63" height="63" viewBox="0 0 63 63" fill="none" xmlns="http://www.w3.org/2000/svg">
<g clip-path="url(#clip0_47_3932)">
<path opacity="0.18" d="M23.1396 6.10214C20.5966 8.66301 19.273 12.328 16.8111 14.9757C12.3167 19.8074 4.53344 20.7602 1.33063 26.6356C-0.27128 29.5607 -0.333353 33.231 0.629793 36.4482C1.59294 39.6654 3.51122 42.4825 5.68481 44.9576C9.55342 49.3605 14.3631 52.8657 19.7015 54.9226C22.2345 55.8987 24.9277 56.5551 27.6109 56.3328C30.7807 56.0713 33.7502 54.6135 36.8769 54.0037C40.1749 53.3686 43.5959 53.6862 46.8799 52.962C50.1638 52.2379 53.5328 50.0624 54.2236 46.5922C54.6531 44.4325 53.9713 42.1459 54.4338 39.9979C55.2428 36.2407 59.0934 34.2547 61.2099 31.1169C62.3065 29.4833 62.9236 27.5443 62.984 25.5421C63.0441 23.4142 62.4023 21.1921 60.9286 19.7428C59.8142 18.6482 58.3425 18.0797 56.9318 17.4794C50.4221 14.7153 45.0727 10.5146 39.3849 6.29799C34.5031 2.67637 27.9273 1.28107 23.1396 6.10214Z" fill="#68E1FD"/>
<path d="M32.1943 39.6283L33.2266 58.4331L34.8935 58.5686L38.6931 39.0789L40.302 58.8173H41.969L44.9095 39.9216L38.6931 36.2036L32.1943 39.6283Z" fill="#25233A"/>
<path d="M53.9863 15.289C53.9863 15.289 54.3047 14.548 54.0935 13.2014C53.8822 11.8548 55.2619 9.97145 55.2619 9.97145C55.3695 10.0342 55.4566 10.1301 55.5115 10.2463C55.5664 10.3626 55.5865 10.4938 55.5692 10.6225L56.5564 7.90497C56.5564 7.90497 57.043 7.65619 57.5275 9.1023C58.0121 10.5484 57.6347 11.8124 57.4985 12.508C57.2712 13.6788 56.2731 14.5406 56.216 15.0911C56.1585 15.5251 56.0718 15.9542 55.9567 16.3752L53.9863 15.289Z" fill="url(#paint0_linear_47_3932)"/>
<path d="M38.6631 11.0206C38.6631 11.0206 34.2578 11.0089 33.8834 11.2715C33.5089 11.534 32.5348 12.1798 31.908 13.8451C31.2813 15.5103 28.0324 24.6676 28.0324 24.6676C28.0324 24.6676 27.7731 25.614 28.6401 26.5636C29.5072 27.5132 32.2534 30.9411 32.2534 30.9411L31.1772 39.5828C31.1772 39.5828 37.9853 40.1259 38.7862 37.9557C38.7862 37.9557 41.2702 39.4473 44.9135 39.9227L46.1149 40.4054L46.2151 24.0822C46.7082 24.7134 47.3496 25.1964 48.075 25.4827C48.8004 25.7691 49.5843 25.8487 50.348 25.7135C53.0412 25.2731 55.6032 21.6441 56.7556 17.0527L53.0382 14.9778C53.0382 14.9778 51.6275 20.8808 49.2547 19.8582C47.5997 19.1436 47.6007 16.4557 47.4145 14.5649C47.3652 14.0654 47.1703 13.5945 46.8568 13.2172C46.5433 12.84 46.1266 12.5751 45.6644 12.4593L42.5157 11.6685L38.6631 11.0206Z" fill="white"/>
<path d="M35.4042 28.3271L34.9146 39.5636C34.9146 39.5636 31.864 39.6959 31.1761 39.5827L32.2524 30.942L35.4042 28.3271Z" fill="#68E1FD"/>
<path d="M35.4042 28.3271L34.9146 39.5636C34.9146 39.5636 31.864 39.6959 31.1761 39.5827L32.2524 30.942L35.4042 28.3271Z" fill="url(#paint1_linear_47_3932)"/>
<path d="M46.2151 24.082L45.2179 21.7085L43.9083 39.7616L46.116 40.4052L46.2151 24.082Z" fill="#68E1FD"/>
<path d="M46.2151 24.082L45.2179 21.7085L43.9083 39.7616L46.116 40.4052L46.2151 24.082Z" fill="url(#paint2_linear_47_3932)"/>
<path d="M38.4548 12.7991C38.4548 12.7991 40.8827 14.548 42.2353 13.3125L38.6551 29.315L38.4548 12.7991Z" fill="#25233A"/>
<path d="M39.0665 8.54761C39.0665 8.54761 37.9401 13.0998 38.7411 14.0896C39.542 15.0795 42.045 15.1631 42.2352 13.3126C42.4255 11.4621 43.2554 8.988 43.2554 8.988L39.0665 8.54761Z" fill="url(#paint3_linear_47_3932)"/>
<path opacity="0.19" d="M38.9443 9.66016C38.9443 9.66016 39.9025 12.2009 40.7285 12.6042C41.5544 13.0076 42.2733 12.7101 42.3774 12.3555C42.4816 12.0008 42.9131 10.0984 42.9131 10.0984L38.9443 9.66016Z" fill="url(#paint4_linear_47_3932)"/>
<path d="M44.8394 6.04494C44.8394 8.93399 43.2996 11.2757 41.3993 11.2757C39.499 11.2757 37.9602 8.93081 37.9602 6.04494C37.9602 3.15908 39.6502 2.08984 41.5495 2.08984C43.4487 2.08984 44.8394 3.15378 44.8394 6.04494Z" fill="url(#paint5_linear_47_3932)"/>
<path d="M46.174 4.38488C46.0448 5.17358 45.6263 5.87863 45.1347 6.48735C45.1347 6.43548 45.1267 6.38149 45.1217 6.33068C45.0717 5.75054 44.9856 5.16617 44.7483 4.64425C44.489 4.07258 44.0224 3.57608 43.4367 3.44375C43.0462 3.35482 42.6267 3.42893 42.2233 3.45116C41.8929 3.4681 41.5735 3.45116 41.2892 3.27966C41.1586 3.18079 41.0203 3.09401 40.8757 3.02029C40.0517 2.7027 39.499 4.26526 39.466 4.86339C39.4279 5.55363 39.5341 6.27351 39.3038 6.92246C39.1036 6.83988 39.0305 6.58687 38.9554 6.37196C38.8803 6.15706 38.7231 5.91992 38.5098 5.95591C38.4571 5.96903 38.4076 5.99384 38.3647 6.0287C38.3217 6.06355 38.2862 6.10767 38.2605 6.15812C38.0933 6.44501 38.1354 6.81871 38.2525 7.13207C38.3697 7.44543 38.5529 7.72915 38.666 8.04462C38.7572 8.30502 38.7983 8.58202 38.7869 8.85941C38.7756 9.1368 38.712 9.40902 38.6 9.66012C38.1296 8.98934 37.7952 8.22313 37.6178 7.40944L37.1172 7.86995C37.1285 7.20441 37.1395 6.53852 37.1502 5.87228C37.1773 4.32454 37.2503 2.63918 38.2035 1.4662C38.9343 0.565291 40.0737 0.135481 41.191 0.0274994C42.4315 -0.0910689 43.7401 0.166182 44.7433 0.947462C45.7465 1.72874 46.3872 3.08593 46.174 4.38488Z" fill="#3F3D56"/>
<path d="M45.6734 4.39119C45.3029 5.70285 45.1217 6.33062 45.1217 6.33062C45.0717 5.75049 44.9856 5.16611 44.7483 4.6442C44.489 4.07253 44.0224 3.57603 43.4367 3.4437C43.0462 3.35477 42.6267 3.42888 42.2233 3.45111C42.2233 3.45111 43.7251 2.61372 44.3918 2.40199C45.0586 2.19026 46.0438 3.08058 45.6734 4.39119Z" fill="#25233A"/>
<path opacity="0.19" d="M38.9444 7.30783C38.9444 7.30783 38.6019 7.16068 38.7091 6.87802C38.8162 6.59536 38.7201 6.44397 38.609 6.40692C38.4978 6.36987 38.1724 6.66311 38.5088 7.30783C38.8452 7.95255 38.9444 7.30783 38.9444 7.30783Z" fill="url(#paint6_linear_47_3932)"/>
<path d="M38.1815 10.4319L37.1803 10.7993C37.0947 10.8308 37.0184 10.8855 36.959 10.958C36.8996 11.0304 36.8592 11.118 36.8419 11.2121L35.9508 16.0819L37.6729 16.372L36.7778 17.6783L38.651 28.3241L38.5159 10.6818C38.5151 10.6396 38.5049 10.5983 38.4863 10.5611C38.4676 10.5239 38.4409 10.4918 38.4084 10.4675C38.3758 10.4432 38.3383 10.4273 38.2989 10.4211C38.2595 10.4149 38.2193 10.4186 38.1815 10.4319ZM42.5186 11.6642L43.5889 12.0771L43.9083 17.0527H42.3775L43.0312 18.4543L38.655 29.315C38.655 29.315 41.999 15.4107 42.5186 11.6642Z" fill="#68E1FD"/>
<path d="M38.1815 10.4319L37.1803 10.7993C37.0947 10.8308 37.0184 10.8855 36.959 10.958C36.8996 11.0304 36.8592 11.118 36.8419 11.2121L35.9508 16.0819L37.6729 16.372L36.7778 17.6783L38.651 28.3241L38.5159 10.6818C38.5151 10.6396 38.5049 10.5983 38.4863 10.5611C38.4676 10.5239 38.4409 10.4918 38.4084 10.4675C38.3758 10.4432 38.3383 10.4273 38.2989 10.4211C38.2595 10.4149 38.2193 10.4186 38.1815 10.4319Z" fill="url(#paint7_linear_47_3932)"/>
<path d="M42.5186 11.6641L43.5889 12.0769L43.9083 17.0526H42.3775L43.0312 18.4542L38.655 29.3149C38.655 29.3149 41.999 15.4106 42.5186 11.6641Z" fill="url(#paint8_linear_47_3932)"/>
<path d="M33.7983 16.5911L32.2574 25.0412L35.4062 28.3272L33.7983 16.5911Z" fill="#68E1FD"/>
<path d="M33.7983 16.5911L32.2574 25.0412L35.4062 28.3272L34.8165 24.0228L33.7983 16.5911Z" fill="url(#paint9_linear_47_3932)"/>
<path d="M35.4062 28.3273L33.1205 31.338L32.2534 30.941L35.1338 28.0425L35.4062 28.3273Z" fill="#25233A"/>
<path d="M35.1499 28.6638C35.1499 28.6638 35.8407 30.2518 35.9508 31.1675L33.1165 31.338L35.1499 28.6638Z" fill="url(#paint10_linear_47_3932)"/>
<path d="M32.8141 31.3379L37.3064 31.1675C37.3064 31.1675 36.9821 36.0373 36.954 36.5772C36.926 37.1171 32.0792 37.4865 32.0792 37.4865L32.8141 31.3379ZM45.8246 31.5137L41.4023 31.1961C41.4023 31.1961 40.9228 36.032 40.9508 36.575C40.9788 37.1181 45.4742 37.8105 45.4742 37.8105L45.8246 31.5137Z" fill="white"/>
<path d="M32.8141 31.3379L37.3064 31.1675C37.3064 31.1675 36.9821 36.0373 36.954 36.5772C36.926 37.1171 32.0792 37.4865 32.0792 37.4865L32.8141 31.3379Z" fill="#68E1FD"/>
<path d="M32.8141 31.3379L37.3064 31.1675C37.3064 31.1675 36.9821 36.0373 36.954 36.5772C36.926 37.1171 32.0792 37.4865 32.0792 37.4865L32.8141 31.3379Z" fill="url(#paint11_linear_47_3932)"/>
<path d="M45.8246 31.5139L41.4023 31.1963C41.4023 31.1963 40.9227 36.0322 40.9508 36.5753C40.9788 37.1184 45.4742 37.8107 45.4742 37.8107L45.8246 31.5139Z" fill="#68E1FD"/>
<path d="M45.8246 31.5139L41.4023 31.1963C41.4023 31.1963 40.9227 36.0322 40.9508 36.5753C40.9788 37.1184 45.4742 37.8107 45.4742 37.8107L45.8246 31.5139Z" fill="url(#paint12_linear_47_3932)"/>
<path d="M53.3716 15.162L53.5979 14.7798L56.6465 16.5911L56.7596 17.0516L53.3716 15.162Z" fill="#25233A"/>
<path d="M35.0037 17.998C35.0039 18.092 34.9777 18.184 34.9284 18.2623C34.8791 18.3406 34.809 18.4017 34.7269 18.4379C34.6447 18.474 34.5543 18.4836 34.4671 18.4653C34.3798 18.4471 34.2996 18.4019 34.2366 18.3355C34.1737 18.2691 34.1308 18.1844 34.1133 18.0921C34.0959 17.9999 34.1047 17.9043 34.1387 17.8174C34.1727 17.7304 34.2303 17.6561 34.3043 17.6039C34.3782 17.5516 34.4652 17.5237 34.5541 17.5237C34.6732 17.5237 34.7874 17.5736 34.8717 17.6625C34.9559 17.7514 35.0034 17.8721 35.0037 17.998Z" fill="url(#paint13_linear_47_3932)"/>
<path d="M38.663 18.0552C38.663 18.1492 38.6366 18.2411 38.5872 18.3192C38.5378 18.3974 38.4676 18.4583 38.3855 18.4943C38.3033 18.5303 38.213 18.5397 38.1258 18.5214C38.0386 18.503 37.9585 18.4578 37.8956 18.3913C37.8327 18.3248 37.7899 18.2401 37.7726 18.1479C37.7552 18.0557 37.7641 17.9601 37.7981 17.8733C37.8322 17.7864 37.8898 17.7122 37.9637 17.6599C38.0376 17.6077 38.1245 17.5798 38.2135 17.5798C38.3327 17.5798 38.447 17.6299 38.5313 17.7191C38.6156 17.8082 38.663 17.9291 38.663 18.0552Z" fill="url(#paint14_linear_47_3932)"/>
<path d="M43.6515 22.1787C43.9936 21.8169 43.9936 21.2304 43.6515 20.8687C43.3093 20.5069 42.7547 20.5069 42.4125 20.8687C42.0704 21.2304 42.0704 21.8169 42.4125 22.1787C42.7547 22.5404 43.3093 22.5404 43.6515 22.1787Z" fill="url(#paint15_linear_47_3932)"/>
<path d="M43.508 21.902C43.7488 21.6474 43.7488 21.2345 43.508 20.9798C43.2671 20.7251 42.8767 20.7251 42.6358 20.9798C42.395 21.2345 42.395 21.6474 42.6358 21.902C42.8767 22.1567 43.2672 22.1567 43.508 21.902Z" fill="url(#paint16_linear_47_3932)"/>
<path d="M43.7066 21.517C43.9475 21.2624 43.9475 20.8495 43.7066 20.5948C43.4658 20.3401 43.0753 20.3401 42.8344 20.5948C42.5936 20.8495 42.5936 21.2624 42.8344 21.517C43.0753 21.7717 43.4658 21.7717 43.7066 21.517Z" fill="url(#paint17_linear_47_3932)"/>
<path d="M26.7939 36.0955H14.1919C14.115 36.0955 14.0388 36.0794 13.9678 36.0482C13.8968 36.017 13.8323 35.9712 13.7781 35.9136C13.7238 35.8559 13.6809 35.7875 13.6517 35.7123C13.6226 35.637 13.6078 35.5564 13.6082 35.4751C13.6082 35.3114 13.6697 35.1544 13.7791 35.0387C13.8886 34.9229 14.0371 34.8579 14.1919 34.8579H26.7939C26.9487 34.8579 27.0971 34.9229 27.2066 35.0387C27.3161 35.1544 27.3776 35.3114 27.3776 35.4751C27.378 35.5564 27.3631 35.637 27.334 35.7123C27.3048 35.7875 27.2619 35.8559 27.2077 35.9136C27.1534 35.9712 27.0889 36.017 27.0179 36.0482C26.9469 36.0794 26.8708 36.0955 26.7939 36.0955Z" fill="#68E1FD"/>
<path d="M20.5866 35.4751C20.5867 35.5562 20.5717 35.6365 20.5424 35.7115C20.5131 35.7864 20.4701 35.8545 20.4159 35.9118C20.3617 35.9692 20.2973 36.0146 20.2264 36.0456C20.1555 36.0766 20.0796 36.0924 20.0029 36.0923H0.0621338V34.8611H20.0049C20.1587 34.8619 20.3061 34.9268 20.415 35.0418C20.5239 35.1567 20.5855 35.3124 20.5866 35.4751Z" fill="#68E1FD"/>
<path d="M27.3755 35.4751C27.3753 35.6387 27.3137 35.7955 27.2043 35.9112C27.0949 36.0269 26.9466 36.092 26.7918 36.0923H20.0048C20.1596 36.0923 20.308 36.0273 20.4175 35.9115C20.527 35.7958 20.5885 35.6388 20.5885 35.4751C20.5885 35.3114 20.527 35.1544 20.4175 35.0387C20.308 34.9229 20.1596 34.8579 20.0048 34.8579H26.7938C26.9483 34.8585 27.0963 34.9237 27.2053 35.0394C27.3143 35.1551 27.3755 35.3118 27.3755 35.4751Z" fill="url(#paint18_linear_47_3932)"/>
<path d="M20.5866 35.4751C20.5867 35.5562 20.5717 35.6365 20.5424 35.7115C20.5131 35.7864 20.4701 35.8545 20.4159 35.9118C20.3617 35.9692 20.2973 36.0146 20.2264 36.0456C20.1555 36.0766 20.0796 36.0924 20.0029 36.0923H0.0621338V34.8611H20.0049C20.1587 34.8619 20.3061 34.9268 20.415 35.0418C20.5239 35.1567 20.5855 35.3124 20.5866 35.4751Z" fill="url(#paint19_linear_47_3932)"/>
<path d="M14.1919 36.0957H26.5846V50.7611H14.1919V36.0957Z" fill="#68E1FD"/>
<path d="M14.1919 36.0957H26.5846V50.7611H14.1919V36.0957Z" fill="url(#paint20_linear_47_3932)"/>
<path d="M0.0631104 36.0957H20.5885V50.7611H0.0631104V36.0957Z" fill="#68E1FD"/>
<path d="M33.4188 59.2472L33.4619 58.4331L34.8936 58.5686L34.7034 59.7892C34.7034 59.7892 33.9955 60.9421 33.4188 59.2472Z" fill="url(#paint21_linear_47_3932)"/>
<path d="M41.8238 59.9098L41.7697 58.8173L40.302 58.8025V60.1724C40.302 60.1724 41.2471 61.6047 41.8238 59.9098Z" fill="url(#paint22_linear_47_3932)"/>
<path d="M33.4188 59.2471C33.4188 59.2471 30.7156 60.6561 30.3972 61.1685C30.1875 61.5429 30.0339 61.9493 29.9417 62.3733C29.9417 62.3733 31.5946 62.404 32.6208 62.0419C33.6471 61.6799 34.8935 61.2882 34.8935 61.2882V59.4197C34.8935 59.4197 34.8725 59.2016 34.5732 59.4504C34.2738 59.6991 33.9725 59.932 33.7071 59.7679C33.4418 59.6039 33.579 59.2355 33.4188 59.2471ZM41.8939 59.6727C41.8939 59.6727 44.2597 61.2278 44.537 61.7624C44.7203 62.1524 44.8459 62.5698 44.9095 63C44.9095 63 43.2585 62.9037 42.2603 62.4643C41.2621 62.025 40.0447 61.538 40.0447 61.538L40.1728 59.6748C40.1728 59.6748 40.2089 59.4631 40.4902 59.7288C40.7715 59.9945 41.2912 60.3132 41.5705 60.1724C41.8498 60.0316 41.7347 59.6483 41.8939 59.6727Z" fill="#68E1FD"/>
<path d="M33.4188 59.2471C33.4188 59.2471 30.7156 60.6562 30.3972 61.1685C30.1875 61.5429 30.0339 61.9493 29.9417 62.3733C29.9417 62.3733 31.5946 62.404 32.6208 62.0419C33.6471 61.6799 34.8935 61.2882 34.8935 61.2882V59.4197C34.8935 59.4197 34.8725 59.2016 34.5732 59.4504C34.2738 59.6991 33.9724 59.932 33.7071 59.7679C33.4418 59.6039 33.579 59.2355 33.4188 59.2471Z" fill="url(#paint23_linear_47_3932)"/>
<path d="M41.8939 59.6728C41.8939 59.6728 44.2597 61.2279 44.537 61.7626C44.7203 62.1525 44.8459 62.5699 44.9095 63.0001C44.9095 63.0001 43.2585 62.9038 42.2603 62.4644C41.2621 62.0251 40.0447 61.5381 40.0447 61.5381L40.1728 59.6749C40.1728 59.6749 40.2089 59.4632 40.4902 59.7289C40.7715 59.9946 41.2912 60.3133 41.5705 60.1725C41.8498 60.0317 41.7347 59.6484 41.8939 59.6728Z" fill="url(#paint24_linear_47_3932)"/>
<path d="M20.6696 34.8399V34.8601H9.70056C9.70056 34.8601 11.3025 29.2884 16.1763 29.461C16.2714 29.461 16.3645 29.4694 16.4546 29.4768C20.963 29.8251 20.7367 34.3741 20.6696 34.8399Z" fill="#68E1FD"/>
<path d="M20.6696 34.8401H17.8662L17.8873 34.5468C17.8873 34.5468 18.7423 30.2064 16.4556 29.4812C20.9629 29.8253 20.7367 34.3743 20.6696 34.8401Z" fill="#68E1FD"/>
<path d="M20.6696 34.8399V34.8601H9.70056C9.70056 34.8601 11.3025 29.2884 16.1763 29.461C16.2714 29.461 16.3645 29.4694 16.4546 29.4768C20.963 29.8251 20.7367 34.3741 20.6696 34.8399Z" fill="url(#paint25_linear_47_3932)"/>
<path d="M20.6696 34.8401H17.8662L17.8873 34.5468C17.8873 34.5468 18.7423 30.2064 16.4556 29.4812C20.9629 29.8253 20.7367 34.3743 20.6696 34.8401Z" fill="url(#paint26_linear_47_3932)"/>
</g>
<defs>
<linearGradient id="paint0_linear_47_3932" x1="54.6131" y1="19.3299" x2="56.9022" y2="7.68093" gradientUnits="userSpaceOnUse">
<stop stop-color="#ECC4D7"/>
<stop offset="0.42" stop-color="#EFD4D1"/>
<stop offset="1" stop-color="#F2EAC9"/>
</linearGradient>
<linearGradient id="paint1_linear_47_3932" x1="31.1771" y1="33.9782" x2="35.4052" y2="33.9782" gradientUnits="userSpaceOnUse">
<stop offset="0.01" stop-color="white" stop-opacity="0"/>
<stop offset="0.13" stop-color="white" stop-opacity="0.17"/>
<stop offset="0.37" stop-color="white" stop-opacity="0.46"/>
<stop offset="0.59" stop-color="white" stop-opacity="0.68"/>
<stop offset="0.77" stop-color="white" stop-opacity="0.85"/>
<stop offset="0.91" stop-color="white" stop-opacity="0.95"/>
<stop offset="1" stop-color="white" stop-opacity="0.99"/>
</linearGradient>
<linearGradient id="paint2_linear_47_3932" x1="47.5206" y1="31.1167" x2="43.3883" y2="30.9983" gradientUnits="userSpaceOnUse">
<stop offset="0.01" stop-color="white" stop-opacity="0"/>
<stop offset="0.13" stop-color="white" stop-opacity="0.17"/>
<stop offset="0.37" stop-color="white" stop-opacity="0.46"/>
<stop offset="0.59" stop-color="white" stop-opacity="0.68"/>
<stop offset="0.77" stop-color="white" stop-opacity="0.85"/>
<stop offset="0.91" stop-color="white" stop-opacity="0.95"/>
<stop offset="1" stop-color="white" stop-opacity="0.99"/>
</linearGradient>
<linearGradient id="paint3_linear_47_3932" x1="41.6325" y1="12.0697" x2="49.1049" y2="17.4541" gradientUnits="userSpaceOnUse">
<stop stop-color="#ECC4D7"/>
<stop offset="0.42" stop-color="#EFD4D1"/>
<stop offset="1" stop-color="#F2EAC9"/>
</linearGradient>
<linearGradient id="paint4_linear_47_3932" x1="45.2769" y1="9.41773" x2="37.6166" y2="11.9376" gradientUnits="userSpaceOnUse">
<stop stop-color="#183866"/>
<stop offset="1" stop-color="#1A7FC1"/>
</linearGradient>
<linearGradient id="paint5_linear_47_3932" x1="37.9602" y1="6.67907" x2="44.8394" y2="6.67907" gradientUnits="userSpaceOnUse">
<stop stop-color="#ECC4D7"/>
<stop offset="0.42" stop-color="#EFD4D1"/>
<stop offset="1" stop-color="#F2EAC9"/>
</linearGradient>
<linearGradient id="paint6_linear_47_3932" x1="39.1656" y1="6.82191" x2="38.1711" y2="7.14948" gradientUnits="userSpaceOnUse">
<stop stop-color="#183866"/>
<stop offset="1" stop-color="#1A7FC1"/>
</linearGradient>
<linearGradient id="paint7_linear_47_3932" x1="34.0475" y1="20.2784" x2="41.2167" y2="18.9581" gradientUnits="userSpaceOnUse">
<stop offset="0.01" stop-color="white" stop-opacity="0"/>
<stop offset="0.13" stop-color="white" stop-opacity="0.17"/>
<stop offset="0.37" stop-color="white" stop-opacity="0.46"/>
<stop offset="0.59" stop-color="white" stop-opacity="0.68"/>
<stop offset="0.77" stop-color="white" stop-opacity="0.85"/>
<stop offset="0.91" stop-color="white" stop-opacity="0.95"/>
<stop offset="1" stop-color="white" stop-opacity="0.99"/>
</linearGradient>
<linearGradient id="paint8_linear_47_3932" x1="44.491" y1="22.6253" x2="38.0215" y2="19.3114" gradientUnits="userSpaceOnUse">
<stop offset="0.01" stop-color="white" stop-opacity="0"/>
<stop offset="0.13" stop-color="white" stop-opacity="0.17"/>
<stop offset="0.37" stop-color="white" stop-opacity="0.46"/>
<stop offset="0.59" stop-color="white" stop-opacity="0.68"/>
<stop offset="0.77" stop-color="white" stop-opacity="0.85"/>
<stop offset="0.91" stop-color="white" stop-opacity="0.95"/>
<stop offset="1" stop-color="white" stop-opacity="0.99"/>
</linearGradient>
<linearGradient id="paint9_linear_47_3932" x1="31.9721" y1="22.7026" x2="34.5663" y2="22.4875" gradientUnits="userSpaceOnUse">
<stop offset="0.01" stop-color="white" stop-opacity="0"/>
<stop offset="0.13" stop-color="white" stop-opacity="0.17"/>
<stop offset="0.37" stop-color="white" stop-opacity="0.46"/>
<stop offset="0.59" stop-color="white" stop-opacity="0.68"/>
<stop offset="0.77" stop-color="white" stop-opacity="0.85"/>
<stop offset="0.91" stop-color="white" stop-opacity="0.95"/>
<stop offset="1" stop-color="white" stop-opacity="0.99"/>
</linearGradient>
<linearGradient id="paint10_linear_47_3932" x1="34.2808" y1="32.7131" x2="35.097" y2="28.5627" gradientUnits="userSpaceOnUse">
<stop stop-color="#ECC4D7"/>
<stop offset="0.42" stop-color="#EFD4D1"/>
<stop offset="1" stop-color="#F2EAC9"/>
</linearGradient>
<linearGradient id="paint11_linear_47_3932" x1="34.8806" y1="28.0699" x2="34.6041" y2="36.284" gradientUnits="userSpaceOnUse">
<stop offset="0.01" stop-color="white" stop-opacity="0"/>
<stop offset="0.13" stop-color="white" stop-opacity="0.17"/>
<stop offset="0.37" stop-color="white" stop-opacity="0.46"/>
<stop offset="0.59" stop-color="white" stop-opacity="0.68"/>
<stop offset="0.77" stop-color="white" stop-opacity="0.85"/>
<stop offset="0.91" stop-color="white" stop-opacity="0.95"/>
<stop offset="1" stop-color="white" stop-opacity="0.99"/>
</linearGradient>
<linearGradient id="paint12_linear_47_3932" x1="43.7691" y1="26.5795" x2="43.1223" y2="37.7623" gradientUnits="userSpaceOnUse">
<stop offset="0.01" stop-color="white" stop-opacity="0"/>
<stop offset="0.13" stop-color="white" stop-opacity="0.17"/>
<stop offset="0.37" stop-color="white" stop-opacity="0.46"/>
<stop offset="0.59" stop-color="white" stop-opacity="0.68"/>
<stop offset="0.77" stop-color="white" stop-opacity="0.85"/>
<stop offset="0.91" stop-color="white" stop-opacity="0.95"/>
<stop offset="1" stop-color="white" stop-opacity="0.99"/>
</linearGradient>
<linearGradient id="paint13_linear_47_3932" x1="34.1026" y1="17.998" x2="35.0007" y2="17.998" gradientUnits="userSpaceOnUse">
<stop stop-color="#68E1FD"/>
<stop offset="0.2" stop-color="#5DB4CF"/>
<stop offset="0.46" stop-color="#50819B"/>
<stop offset="0.69" stop-color="#475C76"/>
<stop offset="0.87" stop-color="#41455E"/>
<stop offset="0.99" stop-color="#3F3D56"/>
</linearGradient>
<linearGradient id="paint14_linear_47_3932" x1="37.7649" y1="18.0552" x2="38.663" y2="18.0552" gradientUnits="userSpaceOnUse">
<stop stop-color="#68E1FD"/>
<stop offset="0.2" stop-color="#5DB4CF"/>
<stop offset="0.46" stop-color="#50819B"/>
<stop offset="0.69" stop-color="#475C76"/>
<stop offset="0.87" stop-color="#41455E"/>
<stop offset="0.99" stop-color="#3F3D56"/>
</linearGradient>
<linearGradient id="paint15_linear_47_3932" x1="42.1564" y1="21.523" x2="43.9094" y2="21.523" gradientUnits="userSpaceOnUse">
<stop stop-color="#68E1FD"/>
<stop offset="0.2" stop-color="#5DB4CF"/>
<stop offset="0.46" stop-color="#50819B"/>
<stop offset="0.69" stop-color="#475C76"/>
<stop offset="0.87" stop-color="#41455E"/>
<stop offset="0.99" stop-color="#3F3D56"/>
</linearGradient>
<linearGradient id="paint16_linear_47_3932" x1="42.8312" y1="21.4407" x2="44.0657" y2="21.4407" gradientUnits="userSpaceOnUse">
<stop stop-color="#68E1FD"/>
<stop offset="0.2" stop-color="#5DB4CF"/>
<stop offset="0.46" stop-color="#50819B"/>
<stop offset="0.69" stop-color="#475C76"/>
<stop offset="0.87" stop-color="#41455E"/>
<stop offset="0.99" stop-color="#3F3D56"/>
</linearGradient>
<linearGradient id="paint17_linear_47_3932" x1="43.9887" y1="19.6644" x2="42.2362" y2="22.7009" gradientUnits="userSpaceOnUse">
<stop stop-color="#68E1FD"/>
<stop offset="0.2" stop-color="#5DB4CF"/>
<stop offset="0.46" stop-color="#50819B"/>
<stop offset="0.69" stop-color="#475C76"/>
<stop offset="0.87" stop-color="#41455E"/>
<stop offset="0.99" stop-color="#3F3D56"/>
</linearGradient>
<linearGradient id="paint18_linear_47_3932" x1="23.563" y1="34.3085" x2="24.3726" y2="42.6318" gradientUnits="userSpaceOnUse">
<stop stop-opacity="0"/>
<stop offset="0.99"/>
</linearGradient>
<linearGradient id="paint19_linear_47_3932" x1="10.4395" y1="31.4321" x2="9.71197" y2="52.8512" gradientUnits="userSpaceOnUse">
<stop stop-opacity="0"/>
<stop offset="0.99"/>
</linearGradient>
<linearGradient id="paint20_linear_47_3932" x1="16.1102" y1="43.4914" x2="53.6747" y2="42.9943" gradientUnits="userSpaceOnUse">
<stop stop-opacity="0"/>
<stop offset="0.99"/>
</linearGradient>
<linearGradient id="paint21_linear_47_3932" x1="33.4188" y1="59.3023" x2="34.8936" y2="59.3023" gradientUnits="userSpaceOnUse">
<stop stop-color="#ECC4D7"/>
<stop offset="0.42" stop-color="#EFD4D1"/>
<stop offset="1" stop-color="#F2EAC9"/>
</linearGradient>
<linearGradient id="paint22_linear_47_3932" x1="41.8248" y1="59.7701" x2="40.302" y2="59.7701" gradientUnits="userSpaceOnUse">
<stop stop-color="#ECC4D7"/>
<stop offset="0.42" stop-color="#EFD4D1"/>
<stop offset="1" stop-color="#F2EAC9"/>
</linearGradient>
<linearGradient id="paint23_linear_47_3932" x1="29.9417" y1="60.8107" x2="34.8935" y2="60.8107" gradientUnits="userSpaceOnUse">
<stop stop-opacity="0"/>
<stop offset="0.99"/>
</linearGradient>
<linearGradient id="paint24_linear_47_3932" x1="40.0447" y1="61.2968" x2="44.9095" y2="61.2968" gradientUnits="userSpaceOnUse">
<stop stop-opacity="0"/>
<stop offset="0.99"/>
</linearGradient>
<linearGradient id="paint25_linear_47_3932" x1="14.8487" y1="29.822" x2="15.9818" y2="43.4167" gradientUnits="userSpaceOnUse">
<stop stop-opacity="0"/>
<stop offset="0.99"/>
</linearGradient>
<linearGradient id="paint26_linear_47_3932" x1="22.0282" y1="28.3114" x2="-1.7924" y2="51.981" gradientUnits="userSpaceOnUse">
<stop stop-opacity="0"/>
<stop offset="0.99"/>
</linearGradient>
<clipPath id="clip0_47_3932">
<rect width="63" height="63" fill="white"/>
</clipPath>
</defs>
</svg>
